<?xml version="1.0" encoding="utf-8"?>
<!-- Generator: Adobe Illustrator 25.1.0, SVG Export Plug-In . SVG Version: 6.00 Build 0)  -->
<svg version="1.1" id="圖層_3" xmlns="http://www.w3.org/2000/svg" xmlns:xlink="http://www.w3.org/1999/xlink" x="0px" y="0px"
	 viewBox="0 0 323.3 296.1" style="enable-background:new 0 0 323.3 296.1;" xml:space="preserve">
<style type="text/css">
	.st0{fill:#E50012;}
	.st1{fill:#010000;}
</style>
<g>
	<polygon class="st0" points="89.7,123.7 83,133 96.5,133 	"/>
	<path class="st1" d="M66.9,144C66.9,143.9,66.9,143.9,66.9,144c-0.1-0.1-0.1-0.1-0.2-0.1h-3.5c0,0-0.1,0-0.1,0c0,0-0.1,0-0.1,0.1
		c0,0-0.1,0.1-0.1,0.1c0,0.1,0,0.1,0,0.3v12c0,0,0,0.4-0.1,0.7c0,0.3,0,0.5-0.1,0.7c-0.1,0.2-0.1,0.5-0.3,0.8
		c-0.2,0.3-0.4,0.5-0.6,0.7c-0.2,0.2-0.4,0.3-0.7,0.5c-0.3,0.2-0.7,0.3-1,0.5c-0.4,0.1-0.8,0.2-1.2,0.2c-0.3,0-0.6,0-1,0
		c-0.4,0-0.8-0.1-1.1-0.2c-0.3-0.1-0.7-0.2-1-0.3c-0.3-0.2-0.6-0.3-0.9-0.6c-0.2-0.2-0.4-0.4-0.5-0.6c-0.1-0.2-0.2-0.3-0.3-0.6
		c-0.1-0.3-0.2-0.8-0.2-1v-12.8c0-0.1,0-0.2,0-0.2c0-0.1,0-0.1-0.1-0.1c0,0,0,0-0.1-0.1c0,0-0.1,0-0.1,0H50c0,0-0.1,0-0.1,0
		c0,0-0.1,0-0.1,0.1c0,0-0.1,0.1-0.1,0.2c0,0.1,0,0.2,0,0.3v13c0,0.3,0,0.6,0.1,1c0.1,0.4,0.2,0.7,0.3,1.1c0.1,0.3,0.2,0.6,0.4,0.9
		c0.2,0.3,0.5,0.6,0.8,1c0.3,0.3,0.7,0.6,1,0.9c0.4,0.3,0.8,0.5,1.2,0.6c0.4,0.2,0.8,0.3,1.3,0.5c0.5,0.1,1,0.2,1.5,0.3
		c0.5,0.1,1,0.1,1.4,0.2c0.4,0,0.8,0,1.3-0.1c0.5-0.1,1-0.1,1.5-0.2c0.4-0.1,0.7-0.1,1-0.2c0.4-0.1,0.8-0.2,1.2-0.4
		c0.5-0.2,1-0.4,1.4-0.7c0.4-0.3,0.8-0.6,1.1-1c0.3-0.3,0.7-0.7,0.9-1.1c0.2-0.3,0.4-0.6,0.5-1c0.1-0.4,0.2-0.9,0.2-1.3
		c0-0.4,0.1-0.7,0.1-1.1c0-0.4,0.1-1,0.1-1v-11.4c0-0.1,0-0.2,0-0.2C67,144,66.9,144,66.9,144 M45.8,155.9c-0.1-0.2-0.1-0.4-0.3-0.7
		c-0.1-0.2-0.3-0.4-0.4-0.6c-0.1-0.2-0.2-0.3-0.4-0.5c-0.1-0.2-0.3-0.3-0.5-0.5c-0.2-0.2-0.5-0.3-0.7-0.5c-0.2-0.1-0.5-0.3-0.7-0.4
		c-0.2-0.1-0.5-0.2-0.7-0.3c-0.3-0.1-0.5-0.2-0.9-0.3c-0.4-0.1-0.8-0.2-1.2-0.3c-0.4-0.1-0.9-0.2-1.4-0.2c-0.5-0.1-1-0.2-1.4-0.2
		c-0.5-0.1-0.9-0.1-1.3-0.2c-0.4-0.1-0.7-0.1-1-0.2c-0.3-0.1-0.6-0.1-0.9-0.2c-0.3-0.1-0.5-0.2-0.7-0.3c-0.2-0.1-0.4-0.2-0.5-0.3
		c-0.1-0.1-0.2-0.1-0.2-0.2c-0.1-0.1-0.1-0.2-0.2-0.3c0-0.1-0.1-0.3-0.1-0.4c0-0.1,0-0.3,0-0.5c0-0.2,0.1-0.3,0.1-0.5
		c0-0.1,0.1-0.3,0.2-0.4c0.1-0.1,0.2-0.2,0.3-0.3c0.1-0.1,0.3-0.2,0.4-0.3c0.1-0.1,0.3-0.2,0.5-0.3c0.2-0.1,0.4-0.2,0.7-0.3
		c0.2-0.1,0.5-0.2,0.8-0.2c0.3-0.1,0.6-0.1,0.9-0.1c0.3,0,0.5,0,0.8,0c0.3,0,0.7,0.1,1,0.1c0.3,0.1,0.5,0.1,0.8,0.2
		c0.3,0.1,0.6,0.2,0.8,0.3c0.3,0.1,0.5,0.2,0.7,0.4c0.2,0.1,0.5,0.3,0.7,0.5c0.2,0.2,0.4,0.3,0.5,0.5c0.1,0.1,0.2,0.3,0.3,0.3
		c0.1,0.1,0.1,0.1,0.2,0.1c0,0,0.1,0,0.1,0c0.1,0,0.1,0,0.2-0.1c0.9-0.6,1.8-1.2,2.7-1.9c0,0,0.1-0.1,0.1-0.1c0-0.1,0-0.1,0-0.2
		c-0.1-0.3-0.8-0.8-1.4-1.3c-0.6-0.4-1.1-0.7-1.6-1c-0.4-0.2-0.8-0.4-1.3-0.5c-0.6-0.2-1.3-0.3-1.9-0.4c-0.6-0.1-1.2-0.1-1.8-0.1
		c-0.7,0-1.4,0.1-2.1,0.2c-0.6,0.1-1.1,0.1-1.6,0.3c-0.6,0.1-1.2,0.4-1.9,0.6c-0.7,0.3-1.3,0.7-1.8,1.1c-0.4,0.4-0.8,0.8-1,1.2
		c-0.2,0.3-0.4,0.6-0.5,0.9c-0.1,0.2-0.2,0.4-0.2,0.7c-0.1,0.3-0.1,0.6-0.1,0.8c0,0.2,0,0.3,0,0.5c0,0.3,0,0.8,0.1,1.2
		c0.1,0.3,0.2,0.6,0.3,0.9c0.2,0.3,0.5,0.7,0.8,1.1c0.4,0.4,0.9,0.8,1.4,1c0.4,0.2,0.8,0.4,1.3,0.5c0.6,0.2,1.2,0.3,1.9,0.5
		c0.7,0.1,1.5,0.2,2.2,0.3c0.6,0.1,1.2,0.2,1.7,0.2c0.5,0.1,1,0.2,1.4,0.3c0.4,0.1,0.7,0.2,0.9,0.3c0.2,0.1,0.4,0.2,0.6,0.4
		c0.2,0.2,0.5,0.4,0.6,0.7c0.1,0.3,0.2,0.5,0.2,0.8c0,0.2,0,0.5,0,0.7c0,0.2-0.1,0.5-0.3,0.7c-0.2,0.3-0.6,0.6-0.9,0.8
		c-0.3,0.2-0.7,0.3-1.1,0.4c-0.4,0.1-1,0.2-1.4,0.2c-0.4,0-0.6,0.1-1,0c-0.4,0-1-0.1-1.4-0.1c-0.3,0-0.6-0.1-0.9-0.1
		c-0.4-0.1-0.9-0.2-1.3-0.4c-0.3-0.1-0.5-0.2-0.7-0.3c-0.3-0.1-0.6-0.3-1-0.6c-0.4-0.3-0.9-0.8-1-1c0,0-0.1-0.1-0.1-0.1
		c0,0-0.1,0-0.1,0c-0.1,0-0.1,0-0.2,0l-3,2c-0.1,0.1-0.1,0.1-0.1,0.2c0,0.1,0,0.1,0.1,0.2c0.1,0.1,0.3,0.3,0.5,0.5
		c0.2,0.2,0.3,0.3,0.5,0.5c0.2,0.2,0.5,0.4,0.8,0.6c0.3,0.2,0.7,0.4,1.2,0.6c0.4,0.2,0.9,0.4,1.4,0.5c0.5,0.2,1,0.3,1.5,0.4
		c0.5,0.1,1,0.2,1.6,0.2c0.5,0,1.1,0.1,1.6,0.1c0.5,0,0.9,0,1.4-0.1c0.5-0.1,1.1-0.1,1.6-0.2c0.5-0.1,1-0.2,1.5-0.4
		c0.5-0.2,0.9-0.3,1.4-0.5c0.4-0.2,0.8-0.4,1.1-0.6c0.3-0.2,0.5-0.3,0.7-0.6c0.2-0.2,0.5-0.5,0.7-0.7c0.2-0.2,0.4-0.4,0.5-0.7
		c0.1-0.2,0.3-0.5,0.4-0.7c0.1-0.3,0.2-0.5,0.2-0.8c0.1-0.2,0.1-0.5,0.1-0.7c0-0.2,0-0.4,0-0.6c0-0.2,0-0.5,0-0.7
		C45.9,156.3,45.9,156.1,45.8,155.9 M108.9,144.1c0-0.1-0.1-0.1-0.1-0.2c-0.1,0-0.2-0.1-0.2-0.1h-3.2c-0.1,0-0.2,0-0.3,0.1
		c-0.1,0-0.1,0.1-0.1,0.2c0,0.1,0,0.3,0,0.4v11.7c0,0.2,0,0.2-0.1,0.2c0,0,0,0-0.1,0c0,0-0.1,0-0.1,0c-0.1,0-0.2-0.1-0.2-0.2
		c-2.9-4-5.9-8-8.8-12c0,0-0.1-0.1-0.2-0.2c-0.1-0.1-0.4-0.1-0.5-0.1h-2.7c-0.1,0-0.2,0-0.3,0c-0.1,0-0.2,0.1-0.2,0.2
		c-0.1,0.1-0.1,0.3-0.1,0.5v18.3c0,0.1,0,0.3,0.1,0.4c0.1,0.1,0.3,0.1,0.3,0.1H95c0.1,0,0.4,0,0.5-0.1c0.1-0.1,0.1-0.3,0.1-0.3
		v-12.2c0-0.1,0-0.3,0-0.4c0-0.1,0.1-0.1,0.1-0.1c0,0,0.1,0,0.1,0c0.1,0.1,0.2,0.3,0.2,0.3c3,4.1,6,8.3,9,12.4
		c0.1,0.1,0.2,0.2,0.3,0.3c0.1,0,0.2,0,0.2,0h3c0.1,0,0.1,0,0.2,0c0.1,0,0.1,0,0.2-0.1c0.1-0.1,0.1-0.3,0.1-0.3c0-6.2,0-12.4,0-18.6
		C108.9,144.3,108.9,144.2,108.9,144.1 M128.8,143.8h-16.4c-0.1,0-0.3,0-0.4,0.1c-0.1,0.1-0.1,0.2-0.1,0.2v2.4c0,0.1,0,0.3,0.1,0.3
		c0.1,0.1,0.2,0.1,0.4,0.1h5.4c0.2,0,0.5,0,0.6,0.2c0.1,0.2,0.2,0.5,0.2,0.5V163c0,0.1,0,0.3,0.1,0.3c0.1,0.1,0.2,0,0.2,0h3.4
		c0.1,0,0.2,0,0.3-0.1c0.1-0.1,0.1-0.3,0.1-0.3v-15.3c0,0,0-0.3,0.2-0.5c0.2-0.2,0.5-0.2,0.7-0.2h5.2c0.5,0,0.6-0.2,0.6-0.5v-2.3
		C129.3,144,129.2,143.8,128.8,143.8 M87.9,144C87.9,143.9,87.8,143.9,87.9,144c-0.1-0.1-0.1-0.1-0.2-0.1h-3.5c0,0-0.1,0-0.1,0
		c0,0-0.1,0-0.1,0.1c0,0-0.1,0.1-0.1,0.1c0,0.1,0,0.1,0,0.3v12c0,0,0,0.4-0.1,0.7c0,0.3,0,0.5-0.1,0.7c-0.1,0.2-0.1,0.5-0.3,0.8
		c-0.2,0.3-0.4,0.5-0.6,0.7c-0.2,0.2-0.4,0.3-0.7,0.5c-0.3,0.2-0.7,0.3-1,0.5c-0.4,0.1-0.8,0.2-1.2,0.2c-0.3,0-0.6,0-1,0
		c-0.4,0-0.8-0.1-1.1-0.2c-0.3-0.1-0.7-0.2-1-0.3c-0.3-0.2-0.6-0.3-0.9-0.6c-0.2-0.2-0.4-0.4-0.5-0.6c-0.1-0.2-0.2-0.3-0.3-0.6
		c-0.1-0.3-0.2-0.8-0.2-1v-12.8c0-0.1,0-0.2,0-0.2c0-0.1,0-0.1-0.1-0.1c0,0,0,0-0.1-0.1c0,0-0.1,0-0.1,0H71c0,0-0.1,0-0.1,0
		c0,0-0.1,0-0.1,0.1c0,0-0.1,0.1-0.1,0.2c0,0.1,0,0.2,0,0.3v13c0,0.3,0,0.6,0.1,1c0.1,0.4,0.2,0.7,0.3,1.1c0.1,0.3,0.2,0.6,0.4,0.9
		c0.2,0.3,0.5,0.6,0.8,1c0.3,0.3,0.7,0.6,1.1,0.9c0.4,0.3,0.8,0.5,1.2,0.6c0.4,0.2,0.8,0.3,1.3,0.5c0.5,0.1,1,0.2,1.5,0.3
		c0.5,0.1,1,0.1,1.4,0.2c0.4,0,0.8,0,1.3-0.1c0.5-0.1,1-0.1,1.5-0.2c0.4-0.1,0.7-0.1,1-0.2c0.4-0.1,0.8-0.2,1.2-0.4
		c0.5-0.2,1-0.4,1.4-0.7c0.4-0.3,0.8-0.6,1.1-1c0.3-0.3,0.7-0.7,0.9-1.1c0.2-0.3,0.4-0.6,0.5-1c0.1-0.4,0.2-0.9,0.2-1.3
		c0-0.4,0.1-0.7,0.1-1.1c0-0.4,0.1-1,0.1-1v-11.4c0-0.1,0-0.2,0-0.2C87.9,144,87.9,144,87.9,144 M147.2,155.9
		c-0.4,1.3-1.1,2.4-2.2,3.3c-1.1,0.8-2.7,1.3-4.1,1.3c-1.4,0-2.7-0.4-3.8-1.2c-1.1-0.8-1.8-1.9-2.3-3.3c-0.4-1.4-0.4-3-0.2-4.4
		c0.3-1.4,0.9-2.7,1.9-3.6c1.1-0.9,2.7-1.5,4.2-1.6c1.6,0,3.1,0.6,4.2,1.5c1.1,1,1.9,2.3,2.2,3.7
		C147.7,153.2,147.6,154.6,147.2,155.9 M151.3,150.6c-0.6-2.4-2.1-4.2-4-5.4c-1.9-1.2-4.1-1.9-6.5-1.8c-2.4,0.1-4.8,0.8-6.7,2.2
		c-1.9,1.4-3.1,3.4-3.7,5.6c-0.6,2.2-0.4,4.7,0.5,6.7c0.9,2.1,2.6,3.7,4.4,4.7c1.8,1,3.7,1.2,5.5,1.2c1.7,0,3.3-0.2,5-1.1
		c1.7-0.9,3.7-2.3,4.7-4.6C151.7,156,151.9,153,151.3,150.6"/>
</g>
<g>
	<path d="M166.7,158.8c-1.3,1.7-2.8,3.1-4.4,4.2l-0.7-0.9c1.6-1.2,3-2.5,4.2-4L166.7,158.8z M177.5,150.1h-15.9v-1.1h7.6
		c-0.3-1-0.6-1.7-0.8-2.1h-5v-7h12.2v7h-6.1c0.3,0.6,0.5,1.2,0.8,2.1h7.1V150.1z M175.3,156.9h-5.1v5.6c0,0.6-0.2,1.1-0.5,1.3
		c-0.3,0.3-0.9,0.4-1.8,0.4h-1.5l-0.5-1.1l1.4,0c0.5,0,0.8,0,1.2,0c0.3,0,0.5-0.3,0.5-0.8v-5.4h-5.3v-4.7h11.6V156.9z M174.5,142.9
		V141h-9.9v1.9H174.5z M174.5,145.9v-2h-9.9v2H174.5z M174.2,155.9v-2.6h-9.3v2.6H174.2z M176,162l-1,0.8c-0.8-1.5-1.7-2.8-2.8-4
		l0.9-0.6C174.2,159.2,175.2,160.5,176,162z M186.8,156.1c-2.4,3.2-5.6,6-9.8,8.3l-0.8-0.8c3.7-2,7-4.8,9.7-8.2L186.8,156.1z
		 M186.4,147.7c-2.1,2.6-5,4.8-8.7,6.8l-0.7-0.9c3.6-1.8,6.5-4,8.5-6.6L186.4,147.7z M186.1,139.9c-1.9,2.4-4.7,4.5-8.4,6.4
		l-0.7-0.9c3.5-1.7,6.3-3.8,8.2-6.3L186.1,139.9z"/>
	<path d="M220.4,164.4h-1.2v-10h-13.3c-0.6,3.9-1.9,7.2-3.8,10l-1-0.7c2.8-3.9,4.2-9.5,4.2-16.8v-7.2h1.2v6.5H218v-6.9h1.2v7.9
		h-12.7c0,2.1-0.1,4.1-0.4,6h14.4V164.4z"/>
	<path d="M251.9,140.9c-1.2,2-2.6,4-4.3,5.9h3.6v1.1h-4.6c-1,1-2.1,2.1-3.4,3.1h6v1.1c-1.1,1.2-2.4,2.3-3.7,3.4v1.6
		c1.7-0.3,3.4-0.7,5.2-1.2l0,1.1c-2,0.5-3.7,0.9-5.2,1.2v4.3c0,0.6-0.2,1.1-0.5,1.4c-0.3,0.3-1.1,0.5-2.4,0.5c-0.5,0-0.9,0-1.4-0.1
		l-0.3-1.2c0.5,0,1,0.1,1.5,0.1c0.9,0,1.4-0.1,1.6-0.2c0.2-0.2,0.3-0.4,0.3-0.7v-3.8c-2.3,0.4-4.5,0.8-6.4,1l-0.3-1
		c2.1-0.3,4.3-0.6,6.7-1.1V155c0.8-0.6,1.8-1.6,3.2-3h-5.7c-0.8,0.6-2,1.4-3.5,2.3l-0.8-0.9c2.9-1.7,5.3-3.6,7.4-5.6h-7v-1.1h5.4
		v-3.6h-4.6v-1.1h4.6v-2.9h1.2v2.9h3.7v1.1h-3.7v3.6h1.5c2.1-2.1,3.7-4.3,4.8-6.4L251.9,140.9z M262.8,163.3l-0.7,1
		c-2.4-1.2-4.4-2.8-5.8-4.9c-1.5,1.8-3.7,3.4-6.6,4.9l-0.9-0.9c3.2-1.6,5.5-3.2,6.9-5c-1.1-1.8-1.9-4.4-2.6-7.6l1.2-0.3
		c0.4,2.7,1.1,5,2.2,6.8c1.9-2.9,2.9-7,2.9-12.4H255c-0.9,2.5-2.1,4.8-3.7,7l-0.9-0.8c2.6-3.7,4.3-7.8,5-12.2l1.1,0.4
		c-0.3,1.7-0.7,3.2-1.2,4.6h7.5v1.1h-2.2c0,5.7-1.2,10.2-3.5,13.4C258.6,160.5,260.5,162.2,262.8,163.3z"/>
	<path d="M300.7,159.4h-11.9v3.4c0,0.6-0.2,1-0.6,1.2c-0.4,0.2-1.4,0.3-2.9,0.3l-1.7,0l-0.3-1c1,0.1,1.8,0.1,2.5,0.1
		c0.9,0,1.4,0,1.6-0.1s0.3-0.2,0.3-0.5v-3.3h-12v-1h12v-1.1c2-0.8,3.8-1.5,5.2-2.2h-12.3v-1h14.6v1c-2.1,1.1-4.3,2-6.4,2.8v0.5h11.9
		V159.4z M300,155.7h-1.2v-3.8h-21.2v3.8h-1.2v-4.8h1.6l-0.2-10.4c1.9-0.2,3.7-0.7,5.4-1.4l0.5,0.8c-1.3,0.6-2.8,1-4.7,1.4l0,2.4
		h4.7v1h-4.7l0,2.5h4.6v1h-4.6l0.1,2.6H297l0.1-2.6h-4.7v-1h4.7l0.1-2.5h-4.8v-1h4.8l0.1-2.4h-5.1v-1h6.3l-0.3,10.7h1.8V155.7z
		 M291.9,149.3l-0.8,0.7c-0.7-0.7-1.6-1.4-2.5-2.1c-1.2,0.8-2.4,1.6-3.8,2.2l-0.5-0.9c1.2-0.5,2.4-1.1,3.5-1.9
		c-0.9-0.7-1.7-1.2-2.5-1.7l0.7-0.7c1,0.7,1.9,1.3,2.7,1.8c0.7-0.5,1.4-1.2,2-1.9l0.8,0.6c-0.5,0.6-1.2,1.3-2,1.9
		C290.2,147.9,291.1,148.6,291.9,149.3z M291.8,143.6l-0.8,0.7c-0.8-0.7-1.6-1.4-2.4-2c-1.1,0.8-2.3,1.4-3.6,2l-0.5-0.9
		c1.2-0.5,2.3-1.1,3.2-1.7c-0.8-0.6-1.6-1.1-2.4-1.6l0.7-0.7l2.6,1.7c0.7-0.5,1.4-1.2,2-2l1,0.5c-0.7,0.8-1.4,1.5-2.1,2.1
		C290.1,142.2,290.9,142.9,291.8,143.6z"/>
</g>
</svg>
