<?xml version="1.0" encoding="utf-8"?>
<!-- Generator: Adobe Illustrator 25.1.0, SVG Export Plug-In . SVG Version: 6.00 Build 0)  -->
<svg version="1.1" id="圖層_2" xmlns="http://www.w3.org/2000/svg" xmlns:xlink="http://www.w3.org/1999/xlink" x="0px" y="0px"
	 viewBox="0 0 323.3 296.1" style="enable-background:new 0 0 323.3 296.1;" xml:space="preserve">
<style type="text/css">
	.st0{fill:url(#SVGID_1_);}
	.st1{fill:#FFFFFF;}
	.st2{fill:none;stroke:#C4BFBB;stroke-miterlimit:10;}
</style>
<linearGradient id="SVGID_1_" gradientUnits="userSpaceOnUse" x1="166.6836" y1="181.6291" x2="163.0355" y2="137.983">
	<stop  offset="0.1649" style="stop-color:#A60520"/>
	<stop  offset="0.9944" style="stop-color:#E00523"/>
</linearGradient>
<polygon class="st0" points="94.9,188.4 90.7,135.1 235.1,135.1 238.5,175.3 "/>
<g>
	<path class="st1" d="M121.7,170.6l-1.1-12.4l0,0l-2.9,12.8l-2.9,0.3l-5.1-12.1l0,0l1.1,12.4l-2.9,0.3l-1.3-15.1l4.8-0.4l4.6,11.1
		l0,0l2.5-11.7l4.8-0.4l1.3,15.1L121.7,170.6z"/>
	<path class="st1" d="M132.6,169.9c-3.6,0.3-6-2.1-6.2-5.3c-0.3-3.7,2-6.1,5.2-6.4c3.3-0.3,6,1.7,6.3,5.4
		C138.2,166.8,136.3,169.6,132.6,169.9z M131.8,160.5c-1.9,0.2-2.6,1.9-2.5,3.5c0.2,1.8,0.9,3.8,3.1,3.6c2.2-0.2,2.6-2.2,2.4-4.1
		C134.7,161.8,133.7,160.3,131.8,160.5z"/>
	<path class="st1" d="M146.4,168.4l-3.2,0.3l-5.1-10.8l3.1-0.3l3.5,7.9l0,0l2-8.4l2.9-0.3L146.4,168.4z"/>
	<path class="st1" d="M153.4,163.1c0.3,1.8,1.6,2.7,3.4,2.5c1.4-0.1,2.5-0.7,3.6-1.4l0.2,2.4c-1,0.7-2.2,1.1-3.7,1.2
		c-3.6,0.3-5.9-1.6-6.3-5.3c-0.3-3.2,1.2-6,4.6-6.3c4.1-0.4,5.5,2.4,5.8,6.2L153.4,163.1z M155.5,158.3c-1.6,0.1-2.3,1.3-2.3,2.8
		l4.9-0.4C157.9,159.3,157.1,158.1,155.5,158.3z"/>
	<path class="st1" d="M165.9,166.9c-1.1,0.1-2.2,0-3.3-0.2l-0.2-2.5c0.9,0.4,2.1,0.6,3.1,0.5c0.7-0.1,1.9-0.4,1.8-1.5
		c-0.2-2.2-5-0.2-5.4-4.3c-0.2-2.4,1.8-3.6,4-3.8c1.3-0.1,2.2,0,3.2,0.1l0.2,2.2c-0.9-0.2-1.8-0.4-2.8-0.3c-0.8,0.1-1.7,0.4-1.6,1.4
		c0.2,1.8,5,0.2,5.4,4.2C170.5,165.5,168.3,166.7,165.9,166.9z"/>
	<path class="st1" d="M177,166c-3.6,0.3-5.7-2-6-5.4c-0.3-3.2,1.4-5.9,4.8-6.2c1.2-0.1,2,0,2.8,0.1l0.2,2.4
		c-0.5-0.2-1.4-0.4-2.3-0.3c-1.8,0.2-2.8,1.7-2.6,3.8c0.2,2,1.3,3.5,3.3,3.4c0.8-0.1,1.8-0.6,2.3-0.8l0.2,2.5
		C179,165.7,178.1,165.9,177,166z"/>
	<path class="st1" d="M186.6,165.1c-3.6,0.3-6-2.1-6.2-5.3c-0.3-3.7,2-6.1,5.2-6.4c3.3-0.3,6,1.7,6.3,5.4
		C192.1,162,190.2,164.8,186.6,165.1z M185.7,155.7c-1.9,0.2-2.6,1.9-2.5,3.5c0.2,1.8,0.9,3.8,3.1,3.6c2.2-0.2,2.6-2.2,2.4-4.1
		C188.7,157.1,187.6,155.6,185.7,155.7z"/>
	<path class="st1" d="M201.6,163.5l-0.1-1.5l0,0c-0.8,1.2-2,2-3.5,2.1c-2.6,0.2-3.9-1.5-4.1-4l-0.6-7.1l2.9-0.3l0.5,6
		c0.1,1.4,0.3,3.2,2.1,3c2.1-0.2,2.3-2.5,2.2-3.9l-0.5-5.5l2.9-0.3l1,11.2L201.6,163.5z"/>
	<path class="st1" d="M214.2,162.4l-0.5-6c-0.1-1.4-0.3-3.2-2.1-3c-2.1,0.2-2.3,2.5-2.2,3.9l0.5,5.5l-2.9,0.3l-1-11.2l2.7-0.2
		l0.1,1.5l0,0c0.8-1.4,2-2,3.4-2.1c2.6-0.2,3.9,1.5,4.1,4l0.6,7L214.2,162.4z"/>
	<path class="st1" d="M224.1,161.8c-2.3,0.2-3.6-1.1-3.8-3.3l-0.5-5.7l-2.2,0.2l-0.2-2.1l2.1-0.2l-0.3-3l2.8-1.2l0.3,3.9l2.6-0.2
		l0.2,2.1l-2.6,0.2l0.5,5.2c0.1,0.9,0.4,1.8,1.5,1.7c0.5,0,1.1-0.2,1.4-0.5l0.2,2.3C225.6,161.6,225,161.7,224.1,161.8z"/>
</g>
<g>
	<path class="st1" d="M109.9,177.8l-0.4,0l0.2,1.7l-0.9,0.1l-0.4-4.5l1.1-0.1c1-0.1,1.9,0.1,2,1.2
		C111.6,177.3,110.9,177.8,109.9,177.8z M109.7,175.8l-0.3,0l0.1,1.4l0.3,0c0.4,0,0.8-0.2,0.8-0.7
		C110.6,175.9,110.1,175.7,109.7,175.8z"/>
	<path class="st1" d="M113.7,179.3c-1.1,0.1-1.8-0.6-1.9-1.6c-0.1-1.1,0.6-1.8,1.6-1.9c1-0.1,1.8,0.5,1.9,1.6
		C115.4,178.4,114.8,179.2,113.7,179.3z M113.5,176.5c-0.6,0-0.8,0.6-0.7,1.1c0,0.5,0.3,1.1,0.9,1.1c0.7-0.1,0.8-0.7,0.7-1.2
		C114.3,176.9,114,176.5,113.5,176.5z"/>
	<path class="st1" d="M120.2,178.7l-1,0.1l-0.9-2.5l0,0l-0.5,2.6l-1,0.1l-1.4-3.2l0.9-0.1l1,2.4l0,0l0.4-2.5l1-0.1l0.9,2.4l0,0
		l0.5-2.5l0.8-0.1L120.2,178.7z"/>
	<path class="st1" d="M122.1,177.1c0.1,0.5,0.5,0.8,1,0.8c0.4,0,0.8-0.2,1.1-0.4l0.1,0.7c-0.3,0.2-0.7,0.3-1.1,0.4
		c-1.1,0.1-1.8-0.5-1.9-1.6c-0.1-1,0.3-1.8,1.4-1.9c1.2-0.1,1.6,0.7,1.7,1.9L122.1,177.1z M122.7,175.6c-0.5,0-0.7,0.4-0.7,0.8
		l1.5-0.1C123.4,176,123.2,175.6,122.7,175.6z"/>
	<path class="st1" d="M126.4,175.5c-0.7,0.1-0.6,0.9-0.6,1.4l0.1,1.2l-0.9,0.1l-0.3-3.3l0.8-0.1l0.1,0.8l0,0c0-0.3,0.3-0.9,0.8-0.9
		c0.1,0,0.2,0,0.3,0l0.1,0.9C126.7,175.5,126.5,175.5,126.4,175.5z"/>
	<path class="st1" d="M129.7,177.8l0-0.4c-0.2,0.3-0.6,0.5-1,0.5c-1,0.1-1.5-0.7-1.5-1.6c-0.1-0.9,0.2-1.8,1.2-1.9
		c0.4,0,0.7,0.1,1,0.4l-0.2-1.8l0.8-0.4l0.4,5.1L129.7,177.8z M128.6,175.2c-0.6,0-0.7,0.7-0.6,1.1c0,0.5,0.3,1.1,0.8,1
		c0.6,0,0.7-0.7,0.7-1.1C129.4,175.7,129.2,175.1,128.6,175.2z"/>
	<path class="st1" d="M134.8,177.5c-0.4,0-0.8-0.1-1.1-0.4l0,0l0,0.4l-0.8,0.1l-0.4-4.7l0.8-0.4l0.2,2.1l0,0
		c0.2-0.3,0.5-0.6,0.9-0.6c1-0.1,1.5,0.7,1.5,1.6C136.1,176.5,135.8,177.4,134.8,177.5z M134.3,174.7c-0.5,0-0.7,0.7-0.7,1.1
		c0,0.5,0.3,1.1,0.9,1c0.6,0,0.7-0.7,0.6-1.1C135.1,175.2,134.9,174.6,134.3,174.7z"/>
	<path class="st1" d="M138.6,177c-0.2,0.8-0.3,1.5-1.2,1.6l-0.6,0.1l-0.1-0.7l0.5,0c0.3,0,0.5-0.3,0.5-0.7l-1.6-3.4l0.9-0.1l1,2.4
		l0,0l0.6-2.5l0.9-0.1L138.6,177z"/>
	<path class="st1" d="M143,176.7c-0.5,0-0.7,0-1.2-0.1l-0.1-0.9c0.3,0.1,0.8,0.3,1.1,0.2c0.3,0,0.8-0.2,0.8-0.7
		c-0.1-0.9-2-0.3-2.1-1.8c-0.1-1,0.7-1.5,1.4-1.5c0.4,0,0.8,0,1.1,0.1l0.1,0.8c-0.3-0.1-0.7-0.1-1-0.1s-0.7,0.2-0.7,0.7
		c0.1,0.8,2,0.3,2.1,1.8C144.6,176.2,143.9,176.6,143,176.7z"/>
	<path class="st1" d="M147.5,176.3l0-0.5l0,0c-0.2,0.3-0.6,0.6-1,0.6c-0.8,0.1-1.2-0.5-1.2-1.2l-0.2-2.1l0.9-0.1l0.2,1.8
		c0,0.4,0.1,1,0.6,0.9c0.6-0.1,0.7-0.8,0.7-1.2l-0.1-1.6l0.9-0.1l0.3,3.3L147.5,176.3z"/>
	<path class="st1" d="M151.3,175.9l0-0.5l0,0c-0.2,0.3-0.6,0.6-1,0.6c-0.8,0.1-1.2-0.5-1.2-1.2l-0.2-2.1l0.9-0.1l0.2,1.8
		c0,0.4,0.1,1,0.6,0.9c0.6-0.1,0.7-0.8,0.7-1.2l-0.1-1.6l0.9-0.1l0.3,3.3L151.3,175.9z"/>
	<path class="st1" d="M155.1,175.6l-0.2-1.8c0-0.4-0.1-1-0.6-0.9c-0.6,0.1-0.7,0.7-0.7,1.2l0.1,1.6l-0.9,0.1l-0.3-3.3l0.8-0.1l0,0.5
		l0,0c0.2-0.4,0.6-0.6,1-0.6c0.8-0.1,1.2,0.5,1.2,1.2l0.2,2.1L155.1,175.6z"/>
	<path class="st1" d="M158.1,175.4c-0.7,0.1-1.1-0.3-1.1-1l-0.2-1.7l-0.6,0.1l-0.1-0.6l0.6-0.1l-0.1-0.9l0.8-0.4l0.1,1.2l0.8-0.1
		l0.1,0.6l-0.8,0.1l0.1,1.6c0,0.3,0.1,0.5,0.5,0.5c0.2,0,0.3-0.1,0.4-0.1l0.1,0.7C158.5,175.3,158.3,175.4,158.1,175.4z"/>
	<path class="st1" d="M160.6,175.2c-1.1,0.1-1.8-0.6-1.9-1.6c-0.1-1.1,0.6-1.8,1.6-1.9c1-0.1,1.8,0.5,1.9,1.6
		C162.3,174.3,161.7,175.1,160.6,175.2z M160.4,172.4c-0.6,0-0.8,0.6-0.7,1.1c0,0.5,0.3,1.1,0.9,1.1c0.7-0.1,0.8-0.7,0.7-1.2
		C161.3,172.8,161,172.3,160.4,172.4z"/>
</g>
<g>
	<path class="st1" d="M204.9,167.9l-0.1-0.9l0.9-0.1l0.1,0.9L204.9,167.9z"/>
	<path class="st1" d="M209.6,171.4c-1.9,0.2-3-1.1-3.1-2.8c-0.1-1.7,0.7-3.1,2.5-3.3c0.6-0.1,1.1,0,1.5,0.1l0.1,1.2
		c-0.3-0.1-0.7-0.2-1.2-0.2c-0.9,0.1-1.5,0.9-1.4,2c0.1,1.1,0.7,1.9,1.7,1.8c0.4,0,1-0.3,1.2-0.4l0.1,1.3
		C210.7,171.2,210.2,171.3,209.6,171.4z"/>
	<path class="st1" d="M214.7,170.9c-1.9,0.2-3.1-1.1-3.3-2.8c-0.2-1.9,1-3.2,2.7-3.4c1.7-0.2,3.1,0.9,3.3,2.8
		C217.6,169.3,216.6,170.8,214.7,170.9z M214.2,166c-1,0.1-1.4,1-1.3,1.9c0.1,1,0.5,2,1.6,1.9c1.2-0.1,1.4-1.2,1.3-2.1
		C215.8,166.7,215.2,165.9,214.2,166z"/>
	<path class="st1" d="M225.7,169.8l-0.3-3.5c0-0.5-0.1-1.3-1-1.2c-1,0.1-1,1.3-0.9,2.1l0.3,2.8l-1.5,0.1l-0.3-3.5
		c0-0.5-0.1-1.3-1-1.2c-1,0.1-1,1.3-0.9,2.1l0.3,2.8l-1.5,0.1l-0.5-5.9l1.4-0.1l0.1,0.8l0,0c0.4-0.8,1.1-1.1,1.6-1.1
		c0.8-0.1,1.4,0.2,1.8,0.9c0.3-0.7,1-1.1,1.7-1.2c1.4-0.1,1.9,0.8,2,2.1l0.3,3.7L225.7,169.8z"/>
</g>
<line class="st2" x1="10.6" y1="135.1" x2="315.1" y2="135.1"/>
<g>
	<path d="M18,116.7c-0.3-0.2-0.9-0.5-1.7-0.5c-1.4,0-1.9,0.8-1.9,1.6c0,1,0.6,1.5,1.9,2c1.6,0.7,2.4,1.5,2.4,2.9
		c0,1.6-1.1,2.8-3.3,2.8c-0.9,0-1.9-0.3-2.4-0.6l0.3-0.9c0.5,0.3,1.3,0.6,2.1,0.6c1.3,0,2.1-0.7,2.1-1.8c0-1-0.5-1.6-1.8-2.1
		c-1.5-0.6-2.5-1.4-2.5-2.8c0-1.5,1.2-2.6,3-2.6c0.9,0,1.6,0.2,2,0.5L18,116.7z"/>
	<path d="M27.2,121.3c0,3-1.5,4.1-3.5,4.1c-1.8,0-3.3-1.1-3.3-4v-5.9h1.1v6c0,2.2,1,3.1,2.3,3.1c1.4,0,2.4-1,2.4-3.1v-6h1.1V121.3z"
		/>
	<path d="M36.2,121.3c0,3-1.5,4.1-3.5,4.1c-1.8,0-3.3-1.1-3.3-4v-5.9h1.1v6c0,2.2,1,3.1,2.3,3.1c1.4,0,2.4-1,2.4-3.1v-6h1.1V121.3z"
		/>
	<path d="M45.4,125.3h-1.1l-3.1-5.2c-0.7-1.1-1.3-2.2-1.8-3.3l-0.1,0c0.1,1.3,0.1,2.4,0.1,4.1v4.3h-1v-9.8h1.1l3.2,5.2
		c0.7,1.2,1.3,2.2,1.7,3.2l0,0c-0.1-1.4-0.1-2.5-0.1-4.1v-4.3h1V125.3z"/>
	<path d="M53.3,116.4h-2.9v8.9h-1.1v-8.9h-2.9v-0.9h6.9V116.4z"/>
	<path d="M62.3,120.3c0,3.5-1.9,5.2-4.3,5.2c-2.4,0-4.2-1.9-4.2-5c0-3.2,1.8-5.2,4.3-5.2C60.6,115.3,62.3,117.3,62.3,120.3z
		 M55,120.4c0,2.1,1.1,4.1,3.1,4.1c2,0,3.1-2,3.1-4.2c0-2-1-4.1-3.1-4.1C55.9,116.2,55,118.3,55,120.4z"/>
	<path d="M77.9,123.5h-2.8v1.4c0,0.3-0.1,0.6-0.2,0.7c-0.2,0.2-0.5,0.2-0.9,0.2l-1.2,0l-0.2-0.5c0.4,0,0.8,0,1.2,0
		c0.4,0,0.6,0,0.7-0.1s0.1-0.2,0.1-0.3v-1.5h-7.9v-0.4h7.9v-0.7h0.5v0.7h2.8V123.5z M77.8,116h-5.2v1h4.1v3.4H76
		c0.6,0.6,1.2,1.2,1.7,1.8l-0.4,0.3c-0.2-0.3-0.4-0.6-0.6-0.8c-3.4,0.3-6.5,0.4-9.5,0.4l-0.1-0.5h0.4c1.3,0,2.9,0,4.8-0.1v-1.1H68
		V117h4.1v-1h-5.2v-0.4h5.2v-0.8h0.5v0.8h5.2V116z M72.1,118.5v-1h-3.6v1H72.1z M72.1,120v-1.1h-3.6v1.1H72.1z M71.2,125.2l-0.3,0.4
		c-0.5-0.5-1.2-0.9-1.8-1.3l0.3-0.4C70,124.2,70.6,124.7,71.2,125.2z M76.2,118.5v-1h-3.6v1H76.2z M76.2,120v-1.1h-3.6v1.1H76.2z
		 M76.2,121.3c-0.2-0.2-0.4-0.5-0.7-0.6l0.3-0.3h-3.3v1.1C73.8,121.5,75.1,121.4,76.2,121.3z"/>
	<path d="M90.2,116.8H81v3.4c0,2.3-0.3,4.2-1,5.7l-0.4-0.3c0.3-0.6,0.5-1.3,0.6-2.1s0.2-1.9,0.2-3.4V115h9.7V116.8z M89.7,116.4
		v-0.9H81v0.9H89.7z M90.4,121.7c-0.1,2.3-0.1,3.6-0.2,3.8s-0.3,0.4-0.7,0.4l-0.8,0l-0.1-0.4c0.2,0,0.5,0,0.9,0c0.2,0,0.2,0,0.3-0.1
		s0.1-0.5,0.1-1.1c0-0.7,0.1-1.4,0.1-2.2h-4v0.6h2.6v1.4h-0.8c0.3,0.4,0.6,0.7,0.8,1.1l-0.4,0.2c-0.1-0.1-0.1-0.3-0.2-0.4
		c-2.2,0.3-4.2,0.4-6.1,0.6l-0.1-0.4c1-0.1,2.2-0.2,3.7-0.3v-0.9h-2.6v-1.4h2.6v-0.6h-1.9c-0.6,0.5-1.3,0.9-2,1.2l-0.3-0.4
		c1.1-0.4,2-1,2.8-1.9h-1.8v-1.6h8.1v1.6h-5.7c-0.2,0.3-0.5,0.5-0.7,0.7H90.4z M85.2,118.7c-0.5,0.1-1.6,0.3-3.3,0.5l-0.1-0.4
		c1.6-0.2,2.7-0.3,3.4-0.5L85.2,118.7z M85.1,117.6l-0.1,0.4c-1.3-0.2-2.4-0.4-3.2-0.4l0.1-0.4C83,117.2,84.1,117.4,85.1,117.6z
		 M84.7,120.6v-0.8h-2.1v0.8H84.7z M85.4,123.8v-0.7h-2.1v0.7H85.4z M87.3,120.6v-0.8h-2.1v0.8H87.3z M88.1,123.8v-0.7h-2.1v0.7
		H88.1z M87.6,124.8c-0.1-0.1-0.2-0.2-0.3-0.5l0.3-0.2h-1.7v0.8C86.5,124.9,87.1,124.8,87.6,124.8z M86.5,119H86v-1.8h0.5V119z
		 M90.7,117.6c-1.4,0.2-2.5,0.3-3.3,0.4l-0.1-0.4c0.8,0,1.9-0.1,3.3-0.3L90.7,117.6z M90.8,118.8l-0.1,0.4c-1-0.2-2.1-0.4-3.4-0.5
		l0.1-0.4C88.6,118.4,89.8,118.6,90.8,118.8z M89.8,120.6v-0.8h-2.1v0.8H89.8z"/>
	<path d="M103.8,125.2l-0.2,0.5h-4.3c-2.1,0-3.8-0.5-4.9-1.5c-0.4,0.6-0.9,1.1-1.6,1.7l-0.4-0.3c1.4-1.2,2.3-2.6,2.6-4.3h-2.2v-0.5
		c0.8-1,1.6-1.9,2.1-2.8h-2.4v-0.5h3.1v0.5c-0.4,0.6-1.1,1.5-2.1,2.8h2.1v0.5c-0.2,1-0.5,1.9-0.9,2.5c0.8,0.7,1.7,1.1,2.5,1.2
		c0.9,0.1,2.6,0.2,5.3,0.2L103.8,125.2z M95.1,116.6l-0.3,0.4c-0.5-0.6-1.1-1.2-1.8-1.8l0.3-0.4C93.9,115.2,94.5,115.9,95.1,116.6z
		 M103.6,123.3h-3.6v1.2h-0.5v-1.2H96v-0.4h3.6v-1.1h-2.9v-3.4h2.9v-1.1h-2.3v-0.4h2.3v-0.8h0.5v0.8h2.3v0.4h-2.3v1.1h2.9v3.4h-2.9
		v1.1h3.6V123.3z M103.3,117.1h-0.5v-1.6h-5.9v1.6h-0.5v-2h7V117.1z M99.6,119.8v-1h-2.3v1H99.6z M99.6,121.3v-1.1h-2.3v1.1H99.6z
		 M102.4,119.8v-1h-2.3v1H102.4z M102.4,121.3v-1.1h-2.3v1.1H102.4z"/>
	<path d="M111.7,117.2H109v1.1h2.4v3.6H109v1.1h2.4v0.4H109v1.4l2.4-0.4v0.4c-0.8,0.2-2.8,0.5-5.9,0.9l-0.1-0.5
		c0.8-0.1,1.9-0.2,3.1-0.4v-1.5H106V123h2.5v-1.1h-2.4v-3.6h2.4v-1.1h-2.9v-0.5h2.9v-1.1c-0.8,0.1-1.7,0.1-2.5,0.1l-0.2-0.4h0.2
		c1.9,0,3.7-0.2,5.3-0.6l0.3,0.4c-0.8,0.2-1.7,0.3-2.6,0.5v1.2h2.7V117.2z M108.5,119.9v-1.1h-1.9v1.1H108.5z M108.5,121.5v-1.1
		h-1.9v1.1H108.5z M110.9,119.9v-1.1H109v1.1H110.9z M110.9,121.5v-1.1H109v1.1H110.9z M116.1,117.5c0,2.1,0,3.9-0.1,5.3
		c-0.1,1.4-0.1,2.2-0.2,2.4c-0.1,0.2-0.2,0.4-0.4,0.5c-0.2,0.1-0.7,0.2-1.4,0.2l-0.4,0l-0.2-0.5l1.2,0c0.2,0,0.4-0.1,0.5-0.2
		s0.2-0.3,0.2-0.7l0.1-2.4c0.1-1.3,0.1-2.7,0.1-4.1h-1.5c-0.1,2.3-0.3,4-0.8,5.1c-0.5,1.1-1.1,2-1.9,2.8l-0.5-0.3
		c0.8-0.7,1.4-1.6,1.9-2.7c0.5-1,0.7-2.7,0.8-5h-1.8v-0.5h1.8l0.1-2.8h0.5l-0.1,2.8H116.1z"/>
	<path d="M129.6,121.7h-5.3v4.2h-0.5v-4.2h-5.3v-0.5h5.3v-5.6h-5.1v-0.5h10.7v0.5h-5.1v5.6h5.3V121.7z M121.8,120l-0.5,0.2
		c-0.3-1-0.9-2-1.7-3.1l0.4-0.2C120.8,117.9,121.4,118.9,121.8,120z M128.5,117.1c-0.4,1-1,2.1-1.9,3.1l-0.4-0.3c0.9-1,1.5-2,1.9-3
		L128.5,117.1z"/>
	<path d="M142.6,119.6l-0.4,0.3c-0.4-0.6-0.8-1.1-1.2-1.4c-2.9,0.6-6,0.9-9.4,1.1l-0.2-0.5c1.8-1.4,3.1-2.8,4.1-4.4l0.6,0.2
		c-0.9,1.5-2.2,2.9-3.8,4.2c3.1-0.1,5.9-0.4,8.3-0.9c-0.7-0.7-1.4-1.5-2.2-2.1l0.4-0.3C140.2,116.8,141.4,118.2,142.6,119.6z
		 M141.3,125.9h-0.5v-0.8h-7.7v0.8h-0.5V121h8.7V125.9z M140.8,124.6v-3.1h-7.7v3.1H140.8z"/>
	<path d="M148.2,121.5v-0.6h3.7v0.6H148.2z"/>
	<path d="M161.9,115c-1,2.3-2.3,4-4.1,5.3l-0.4-0.4c1.6-1.1,2.9-2.8,3.9-5L161.9,115z M166.6,119.5c0,1.3-0.1,2.5-0.2,3.6
		s-0.3,1.8-0.4,2.1c-0.1,0.3-0.3,0.5-0.6,0.6c-0.2,0.1-0.7,0.2-1.3,0.2l-1,0l-0.1-0.5c0.4,0,0.8,0.1,1.2,0.1c0.5,0,0.7,0,0.9-0.1
		c0.1-0.1,0.2-0.1,0.3-0.2c0.1-0.1,0.2-0.4,0.3-0.9s0.2-1.1,0.2-1.8s0.1-1.6,0.1-2.5h-3.5c-0.3,2.6-1.7,4.6-4.2,6.1l-0.3-0.4
		c2.4-1.4,3.7-3.2,4-5.6h-2.5v-0.5H166.6z M168.7,119.7l-0.4,0.5c-1.7-1.3-2.9-2.9-3.6-4.8h-1v-0.5h1.4
		C165.8,116.9,167,118.6,168.7,119.7z"/>
	<path d="M181.6,123.5h-5.1v1.6c0,0.2-0.1,0.4-0.2,0.5c-0.1,0.1-0.3,0.2-0.5,0.2c-0.2,0-0.6,0-1.3,0l-0.9,0l-0.2-0.5
		c0.3,0,0.7,0,1.2,0c0.7,0,1.1,0,1.2-0.1c0.1,0,0.2-0.1,0.2-0.3v-1.6h-5.6V123h5.6v-0.7c1.1-0.3,2.1-0.6,3.1-1h-7.8v-0.5h8.9v0.5
		c-1.1,0.5-2.3,1-3.6,1.4v0.3h5.1V123.5z M181.6,116.3h-11.1v-0.5h5.3c-0.2-0.4-0.4-0.8-0.6-1l0.5-0.2c0.3,0.5,0.5,0.9,0.7,1.2h5.2
		V116.3z M180.1,119.7h-8.2v-2.3h8.2V119.7z M179.6,119.2v-1.3h-7.1v1.3H179.6z"/>
	<path d="M186.6,114.8c-0.1,0.5-0.5,1.2-0.9,2.2v8.9h-0.5v-8c-0.5,0.9-1.1,1.6-1.7,2.3l-0.3-0.4c1.3-1.4,2.3-3.2,2.9-5.2
		L186.6,114.8z M194.2,116.4c-0.3,1.2-0.6,2.3-1,3.1l-0.5-0.2c0.4-0.8,0.6-1.7,0.8-2.5h-4.9c-0.5,1.1-1.2,2-1.9,2.9l-0.3-0.4
		c1.1-1.1,1.9-2.7,2.6-4.7l0.5,0.1c-0.2,0.6-0.4,1.1-0.6,1.6H194.2z M189,120.1c-0.6,1.9-1.3,3.3-2.1,4.4l-0.5-0.3
		c0.8-1.2,1.5-2.6,2.1-4.3L189,120.1z M190.8,125.1c0,0.3-0.1,0.5-0.2,0.6c-0.2,0.1-0.5,0.2-0.9,0.2h-1.1l-0.2-0.5l1.3,0
		c0.4,0,0.6-0.1,0.6-0.4V118h0.5V125.1z M194.6,124.2l-0.5,0.2c-0.6-1.6-1.3-3-2.1-4.3l0.4-0.2C193.2,121.1,193.9,122.5,194.6,124.2
		z"/>
	<path d="M207.5,125.6h-11.2v-0.5h5.6v-3.7h-4.2v-0.5h4.2v-3.2h-3.7c-0.5,0.9-1,1.7-1.7,2.3l-0.4-0.4c1.2-1.2,2-2.7,2.5-4.6l0.5,0.1
		c-0.2,0.7-0.5,1.4-0.8,2h3.4v-2.6h0.5v2.6h5v0.5h-5v3.2h4.4v0.5h-4.4v3.7h5.2V125.6z"/>
	<path d="M212.1,121.5c-0.6,1.5-1.4,3-2.6,4.5l-0.4-0.3c1.1-1.3,2-2.8,2.6-4.5L212.1,121.5z M211.9,119.8l-0.3,0.4
		c-0.8-0.7-1.6-1.3-2.3-1.8l0.3-0.4C210.2,118.5,211,119.1,211.9,119.8z M212.2,116.4l-0.3,0.4c-0.7-0.6-1.4-1.2-2.3-1.8l0.3-0.4
		C210.6,115.2,211.4,115.8,212.2,116.4z M220.5,118.8h-3.9v2.2h3v4.8h-0.5V125h-5.5v0.9H213v-4.8h3v-2.2h-3.9v-0.5h3.9v-2.4
		c-1.1,0.1-2.3,0.2-3.4,0.2l-0.2-0.5c2.3,0,4.7-0.3,7.1-0.9l0.2,0.5c-0.9,0.2-2,0.4-3.3,0.6v2.5h3.9V118.8z M219.1,124.5v-3h-5.5v3
		H219.1z"/>
	<path d="M232.5,122H228v3.9h-0.5V122h-4.6v-5h4.6v-2.3h0.5v2.3h4.6V122z M227.4,121.5v-4h-4v4H227.4z M232,121.5v-4h-4v4H232z"/>
	<path d="M239.4,125.7h-0.5v-1.1h-3v1.4h-0.5v-9.1h1.2c0.5-0.9,0.8-1.7,0.9-2.3l0.5,0.2c-0.2,0.6-0.5,1.3-0.9,2.1h2.2V125.7z
		 M238.9,120.3v-3h-3v3H238.9z M238.9,124.1v-3.3h-3v3.3H238.9z M245.8,116.9c0,1.9-0.1,3.7-0.3,5.4c-0.1,1.7-0.3,2.7-0.4,2.9
		s-0.2,0.4-0.4,0.5c-0.2,0.2-0.7,0.2-1.6,0.2l-0.8,0l-0.2-0.5l0.8,0c0.7,0,1.2,0,1.4-0.1c0.2-0.1,0.3-0.3,0.4-0.5s0.2-1.1,0.3-2.6
		c0.1-1.4,0.2-3,0.2-4.8h-3.5c-0.4,0.9-0.9,1.8-1.6,2.6l-0.4-0.4c1.1-1.3,1.9-2.9,2.4-4.9l0.5,0.1c-0.2,0.7-0.5,1.4-0.7,2.1H245.8z
		 M243.5,122.6l-0.5,0.3c-0.4-1-1-2-1.8-3l0.4-0.3C242.3,120.4,242.9,121.4,243.5,122.6z"/>
	<path d="M259,116.3h-8.7c-0.6,0.7-1.3,1.3-2.1,2l-0.4-0.4c1.4-1,2.4-2.1,3-3.2l0.5,0.2c-0.2,0.3-0.4,0.7-0.6,1h8.3V116.3z
		 M259.1,121.3h-1.5c-0.1,1-0.1,1.9-0.2,2.6h1.6v0.5h-1.7c0,0.7-0.2,1.1-0.4,1.3c-0.2,0.2-0.7,0.3-1.3,0.3c-0.3,0-0.6,0-1,0
		l-0.2-0.5c0.5,0,0.9,0.1,1.2,0.1c0.4,0,0.8,0,0.9-0.1c0.2-0.1,0.3-0.4,0.3-1h-7.8c0.2-1.1,0.4-2.2,0.5-3.1H248v-0.5h1.7
		c0.2-1.3,0.3-2.3,0.3-3.1h7.8c0,0.9,0,1.9-0.1,3.1h1.5V121.3z M257.1,121.3h-7c-0.2,1.1-0.3,2-0.4,2.6h7.3
		C257,123.3,257.1,122.5,257.1,121.3z M257.2,118.2h-6.8c-0.1,0.7-0.1,1.6-0.3,2.6h7C257.2,119.8,257.2,119,257.2,118.2z
		 M254.9,123.1l-0.3,0.4c-1-0.6-1.8-1.1-2.7-1.4l0.3-0.4C253.2,122.1,254.1,122.6,254.9,123.1z M254.9,119.9l-0.3,0.4
		c-0.7-0.4-1.5-0.8-2.4-1.2l0.3-0.4C253.4,119.1,254.2,119.5,254.9,119.9z"/>
	<path d="M272.1,120.3h-11.2v-0.5h11.2V120.3z"/>
	<path d="M277.4,114.9c-0.2,0.4-0.4,0.9-0.7,1.5l-0.4,0.8v8.7h-0.5v-7.8c-0.5,0.8-1,1.6-1.7,2.4l-0.3-0.4c1.5-2.1,2.6-4,3.1-5.5
		L277.4,114.9z M284,119.4c0,1.2-0.1,2.4-0.1,3.5s-0.2,1.8-0.2,2c-0.1,0.2-0.2,0.4-0.3,0.5c-0.1,0.1-0.3,0.3-0.6,0.3
		c-0.2,0.1-0.6,0.1-1.1,0.1l-0.7,0l-0.2-0.5c0.3,0,0.7,0,1,0c0.5,0,0.9,0,1-0.1c0.2-0.1,0.3-0.2,0.3-0.4c0.1-0.2,0.1-0.7,0.2-1.8
		c0.1-1,0.1-2.1,0.2-3.3h-2.7c-0.1,2.5-1.3,4.5-3.6,6l-0.3-0.4c1-0.7,1.9-1.5,2.5-2.5c0.6-1,0.9-2.1,0.9-3.2h-2.7v-0.5H284z
		 M280,114.8c-0.5,1.4-1.4,2.8-2.7,4.2l-0.4-0.3c1.2-1.2,2.1-2.5,2.7-4L280,114.8z M285.1,118.7l-0.4,0.3c-1.2-0.9-2-2.2-2.5-3.7
		h-1.1v-0.5h1.5C282.9,116.4,283.7,117.6,285.1,118.7z"/>
	<path d="M288.1,120.4c-0.2,1.4-0.5,2.6-1,3.5l-0.5-0.2c0.4-1,0.7-2.2,0.9-3.5L288.1,120.4z M290.7,119.5h-1.6v6.4h-0.5v-6.4h-1.9
		V119h1.9v-4.3h0.5v4.3h1.6V119.5z M288.1,117.9l-0.5,0.2c-0.2-0.8-0.4-1.5-0.7-2.2l0.5-0.2C287.7,116.4,287.9,117.2,288.1,117.9z
		 M290.9,115.8c-0.1,0.7-0.4,1.5-0.7,2.4l-0.4-0.2c0.3-0.8,0.5-1.5,0.7-2.3L290.9,115.8z M291.1,122.8l-0.5,0.2
		c-0.2-0.7-0.5-1.5-0.9-2.5l0.4-0.2C290.7,121.3,291,122.2,291.1,122.8z M297.3,125c0,0.6-0.4,0.9-1.2,0.9h-1l-0.2-0.5
		c0.3,0,0.6,0,0.9,0c0.4,0,0.6,0,0.7-0.1c0.1-0.1,0.2-0.2,0.2-0.3v-1.2h-4.6c-0.2,0.9-0.6,1.6-1.1,2.1l-0.4-0.3
		c0.4-0.4,0.7-0.9,0.9-1.3c0.2-0.5,0.3-1.2,0.3-2.2v-1.9h5.5V125z M297.9,119.2h-6.7v-0.4h3.1v-1.1h-2.7v-0.4h2.7v-1.1h-2.9v-0.5
		h2.9v-1h0.5v1h2.8v0.5h-2.8v1.1h2.5v0.4h-2.5v1.1h3V119.2z M296.8,123.4v-1.2h-4.5c0,0.4,0,0.8-0.1,1.2H296.8z M296.8,121.7v-1.2
		h-4.5v1.2H296.8z"/>
	<path d="M306,123.8l-0.3,0.4c-0.7-0.7-1.5-1.4-2.4-1.9v3.7h-0.5v-4.2c-0.7,1-1.8,2-3,3l-0.3-0.4c1.4-1,2.5-2.1,3.3-3.3h-2.9v-0.5
		h2.9v-1.4h0.5v1.4h2.5v0.5h-2.5v0.7C304.4,122.4,305.3,123.1,306,123.8z M305.8,115.1c-1.8,0.6-3.7,0.9-5.8,1.1l-0.2-0.5
		c2-0.1,3.9-0.5,5.7-1L305.8,115.1z M301.6,119.2l-0.5,0.2c-0.2-0.5-0.5-1.3-1.1-2.4l0.4-0.2C300.9,117.6,301.2,118.4,301.6,119.2z
		 M303.4,118.7l-0.5,0.2c-0.2-0.7-0.4-1.5-0.8-2.3l0.5-0.2C303,117.2,303.2,118,303.4,118.7z M305.9,116.4c-0.2,1-0.6,1.9-1,2.9
		l-0.4-0.2c0.4-0.8,0.7-1.7,1-2.8L305.9,116.4z M310.9,122.2c-1.7,1.9-3.4,3.1-5.2,3.7l-0.3-0.4c1.8-0.6,3.5-1.9,5.1-3.7
		L310.9,122.2z M310.7,118.5c-1,1.2-2.3,2.2-4.1,3l-0.3-0.4c1.8-0.8,3.1-1.8,4.1-3L310.7,118.5z M310.6,115c-0.9,1.1-2.2,2-4,2.9
		l-0.3-0.4c1.8-0.8,3.1-1.8,3.9-2.8L310.6,115z"/>
</g>
</svg>
