<?xml version="1.0" encoding="utf-8"?>
<!-- Generator: Adobe Illustrator 25.1.0, SVG Export Plug-In . SVG Version: 6.00 Build 0)  -->
<svg version="1.1" id="圖層_3" xmlns="http://www.w3.org/2000/svg" xmlns:xlink="http://www.w3.org/1999/xlink" x="0px" y="0px"
	 viewBox="0 0 323.3 296.1" style="enable-background:new 0 0 323.3 296.1;" xml:space="preserve">
<style type="text/css">
	.st0{fill:#B50033;}
</style>
<g>
	<g>
		<g>
			<g>
				<path class="st0" d="M117.2,167.9v3.5h0.2c0.5,0,0.9-0.2,1.2-0.5c0.2-0.3,0.4-0.8,0.5-1.5h0.2v4.5H119c-0.1-0.5-0.2-0.9-0.3-1.2
					c-0.2-0.3-0.3-0.5-0.6-0.6c-0.2-0.1-0.5-0.2-0.9-0.2v2.4c0,0.5,0,0.8,0.1,0.9c0,0.1,0.1,0.2,0.2,0.3c0.1,0.1,0.3,0.1,0.5,0.1
					h0.5c0.8,0,1.4-0.2,1.9-0.6c0.5-0.4,0.8-0.9,1-1.7h0.2l-0.4,2.7h-7.4v-0.2h0.3c0.2,0,0.4,0,0.6-0.1c0.1-0.1,0.2-0.2,0.3-0.3
					c0-0.1,0.1-0.4,0.1-0.8v-5.6c0-0.4,0-0.6,0-0.7c0-0.1-0.1-0.3-0.2-0.3c-0.2-0.1-0.4-0.2-0.7-0.2h-0.3v-0.2h7.1v2.5h-0.2
					c-0.1-0.6-0.3-1.1-0.5-1.3c-0.2-0.3-0.5-0.5-0.9-0.6c-0.2-0.1-0.7-0.1-1.3-0.1H117.2z"/>
				<path class="st0" d="M142.6,171l2.4,3.5c0.4,0.6,0.7,0.9,0.8,1.1s0.4,0.2,0.6,0.2v0.2h-4.2v-0.2c0.3,0,0.5-0.1,0.6-0.2
					c0.1-0.1,0.1-0.2,0.1-0.3c0-0.1,0-0.1,0-0.2c-0.1-0.1-0.2-0.4-0.4-0.7l-1.2-1.8l-1.3,1.6c-0.4,0.5-0.6,0.8-0.6,1
					c0,0.1,0.1,0.2,0.2,0.3c0.1,0.1,0.2,0.2,0.4,0.2c0.1,0,0.3,0,0.5,0v0.2h-3.3v-0.2c0.4-0.1,0.7-0.2,0.9-0.3
					c0.3-0.2,0.7-0.6,1.2-1.2l1.7-2.1l-2.2-3.2c-0.4-0.5-0.6-0.8-0.6-0.9c-0.1-0.1-0.2-0.2-0.3-0.3c-0.1-0.1-0.3-0.1-0.5-0.1v-0.2
					h4.2v0.2h-0.2c-0.2,0-0.4,0-0.5,0.1c-0.1,0.1-0.1,0.2-0.1,0.3c0,0.1,0,0.2,0,0.2l0.4,0.7l1.1,1.6l0.9-1.1c0.5-0.6,0.7-1,0.7-1.2
					c0-0.1,0-0.2-0.1-0.3c-0.1-0.1-0.2-0.2-0.3-0.2c-0.1-0.1-0.3-0.1-0.6-0.1v-0.2h3.1v0.2c-0.2,0-0.4,0-0.6,0.1
					c-0.2,0.1-0.3,0.2-0.5,0.3c-0.1,0.1-0.4,0.4-0.8,0.9L142.6,171z"/>
				<path class="st0" d="M164.8,167.9v3.5h0.2c0.5,0,0.9-0.2,1.2-0.5c0.2-0.3,0.4-0.8,0.5-1.5h0.2v4.5h-0.2
					c-0.1-0.5-0.2-0.9-0.3-1.2c-0.2-0.3-0.3-0.5-0.6-0.6c-0.2-0.1-0.5-0.2-0.9-0.2v2.4c0,0.5,0,0.8,0.1,0.9c0,0.1,0.1,0.2,0.2,0.3
					c0.1,0.1,0.3,0.1,0.5,0.1h0.5c0.8,0,1.4-0.2,1.9-0.6c0.5-0.4,0.8-0.9,1-1.7h0.2l-0.4,2.7h-7.4v-0.2h0.3c0.2,0,0.4,0,0.6-0.1
					c0.1-0.1,0.2-0.2,0.3-0.3c0-0.1,0.1-0.4,0.1-0.8v-5.6c0-0.4,0-0.6,0-0.7c0-0.1-0.1-0.3-0.2-0.3c-0.2-0.1-0.4-0.2-0.7-0.2h-0.3
					v-0.2h7.1v2.5h-0.2c-0.1-0.6-0.3-1.1-0.5-1.3c-0.2-0.3-0.5-0.5-0.9-0.6c-0.2-0.1-0.7-0.1-1.3-0.1H164.8z"/>
				<path class="st0" d="M188.2,172.1v2.4c0,0.5,0,0.8,0.1,0.9c0.1,0.1,0.2,0.2,0.3,0.3c0.1,0.1,0.4,0.1,0.8,0.1v0.2H185v-0.2
					c0.4,0,0.7,0,0.8-0.1c0.1-0.1,0.2-0.2,0.3-0.3c0.1-0.1,0.1-0.4,0.1-0.9V169c0-0.5,0-0.8-0.1-0.9c-0.1-0.1-0.2-0.2-0.3-0.3
					c-0.1-0.1-0.4-0.1-0.8-0.1v-0.2h4c1,0,1.8,0.1,2.3,0.2c0.5,0.1,0.9,0.4,1.2,0.8c0.3,0.4,0.5,0.8,0.5,1.3c0,0.6-0.2,1.1-0.7,1.6
					c-0.3,0.3-0.7,0.5-1.2,0.6l2,2.9c0.3,0.4,0.5,0.6,0.6,0.7c0.2,0.1,0.4,0.2,0.6,0.2v0.2h-2.7l-2.7-3.9H188.2z M188.2,167.9v3.7
					h0.4c0.6,0,1-0.1,1.3-0.2c0.3-0.1,0.5-0.3,0.7-0.6s0.2-0.6,0.2-1.1c0-0.6-0.2-1.1-0.5-1.4c-0.3-0.3-0.8-0.5-1.5-0.5H188.2z"/>
				<path class="st0" d="M217.5,167.3v3h-0.2c-0.2-0.8-0.5-1.4-1-1.8c-0.5-0.4-1.1-0.6-1.7-0.6c-0.5,0-1,0.2-1.5,0.5
					c-0.4,0.3-0.8,0.7-1,1.2c-0.3,0.6-0.4,1.3-0.4,2.1c0,0.8,0.1,1.5,0.3,2.1c0.2,0.6,0.5,1.1,0.9,1.4c0.4,0.3,0.9,0.5,1.6,0.5
					c0.5,0,1-0.1,1.5-0.4c0.4-0.2,0.9-0.6,1.4-1.2v0.7c-0.5,0.5-1,0.9-1.5,1.1c-0.5,0.2-1.1,0.3-1.8,0.3c-0.9,0-1.7-0.2-2.4-0.5
					c-0.7-0.4-1.3-0.9-1.6-1.6c-0.4-0.7-0.6-1.4-0.6-2.2c0-0.8,0.2-1.6,0.6-2.3c0.4-0.7,1-1.3,1.7-1.7c0.7-0.4,1.5-0.6,2.3-0.6
					c0.6,0,1.2,0.1,1.9,0.4c0.4,0.2,0.6,0.2,0.7,0.2c0.1,0,0.3,0,0.3-0.1c0.1-0.1,0.2-0.3,0.2-0.5H217.5z"/>
				<path class="st0" d="M237.8,175.8v0.2h-4.5v-0.2h0.3c0.2,0,0.4,0,0.6-0.1c0.1-0.1,0.2-0.2,0.3-0.3c0-0.1,0.1-0.4,0.1-0.8v-5.6
					c0-0.4,0-0.7-0.1-0.8c0-0.1-0.1-0.2-0.3-0.3c-0.1-0.1-0.3-0.1-0.6-0.1h-0.3v-0.2h4.5v0.2h-0.3c-0.2,0-0.4,0-0.6,0.1
					c-0.1,0.1-0.2,0.2-0.3,0.3c0,0.1-0.1,0.4-0.1,0.8v5.6c0,0.4,0,0.7,0.1,0.8s0.1,0.2,0.3,0.3c0.1,0.1,0.3,0.1,0.6,0.1H237.8z"/>
				<path class="st0" d="M259,167.3l0.1,2.8h-0.3c-0.1-0.7-0.4-1.3-0.9-1.7c-0.5-0.4-1-0.7-1.5-0.7c-0.4,0-0.8,0.1-1,0.3
					c-0.2,0.2-0.4,0.5-0.4,0.8c0,0.2,0,0.4,0.1,0.5c0.1,0.2,0.3,0.4,0.6,0.6c0.2,0.1,0.7,0.4,1.4,0.7c1,0.5,1.7,1,2,1.4
					c0.3,0.4,0.5,0.9,0.5,1.5c0,0.7-0.3,1.3-0.8,1.8s-1.3,0.8-2.1,0.8c-0.3,0-0.5,0-0.8-0.1c-0.2-0.1-0.5-0.2-0.9-0.3
					c-0.2-0.1-0.4-0.1-0.5-0.1c-0.1,0-0.2,0-0.3,0.1c-0.1,0.1-0.2,0.2-0.3,0.4h-0.2V173h0.2c0.2,0.9,0.5,1.6,1.1,2.1
					c0.5,0.5,1.1,0.7,1.7,0.7c0.5,0,0.8-0.1,1.1-0.4c0.3-0.3,0.4-0.6,0.4-0.9c0-0.2-0.1-0.4-0.2-0.6c-0.1-0.2-0.3-0.4-0.5-0.5
					c-0.2-0.2-0.6-0.4-1.2-0.7c-0.8-0.4-1.3-0.7-1.7-1c-0.3-0.3-0.6-0.6-0.8-0.9c-0.2-0.3-0.3-0.7-0.3-1.1c0-0.7,0.3-1.3,0.7-1.7
					c0.5-0.5,1.1-0.7,1.9-0.7c0.3,0,0.5,0,0.8,0.1c0.2,0.1,0.4,0.1,0.7,0.3c0.3,0.1,0.5,0.2,0.6,0.2c0.1,0,0.2,0,0.3-0.1
					c0.1-0.1,0.1-0.2,0.2-0.5H259z"/>
				<path class="st0" d="M278.5,167.9v3.5h0.2c0.5,0,0.9-0.2,1.2-0.5c0.2-0.3,0.4-0.8,0.5-1.5h0.2v4.5h-0.2
					c-0.1-0.5-0.2-0.9-0.3-1.2c-0.2-0.3-0.3-0.5-0.6-0.6c-0.2-0.1-0.5-0.2-0.9-0.2v2.4c0,0.5,0,0.8,0.1,0.9c0,0.1,0.1,0.2,0.2,0.3
					c0.1,0.1,0.3,0.1,0.5,0.1h0.5c0.8,0,1.4-0.2,1.9-0.6c0.5-0.4,0.8-0.9,1-1.7h0.2l-0.4,2.7h-7.4v-0.2h0.3c0.2,0,0.4,0,0.6-0.1
					c0.1-0.1,0.2-0.2,0.3-0.3c0-0.1,0.1-0.4,0.1-0.8v-5.6c0-0.4,0-0.6,0-0.7c0-0.1-0.1-0.3-0.2-0.3c-0.2-0.1-0.4-0.2-0.7-0.2h-0.3
					v-0.2h7.1v2.5h-0.2c-0.1-0.6-0.3-1.1-0.5-1.3c-0.2-0.3-0.5-0.5-0.9-0.6c-0.2-0.1-0.7-0.1-1.3-0.1H278.5z"/>
			</g>
		</g>
		<g>
			<g>
				<path class="st0" d="M141.8,134c0.1-0.5,0.1-1.1,0.2-1.6c0-0.5,0-1,0-1.4h-26.1c0,0.2,0,0.5,0,0.8c0,3-1.1,4.5-3.4,4.5
					c-1.2,0-1.8-0.5-1.8-1.6c0-0.7,0.3-1.3,0.9-1.7c1.9-1.3,2.8-3,2.8-5c0-0.1,0-0.1,0-0.1l0.7,0c0.3,0.8,0.5,1.5,0.6,2.1h19.7
					c0.1,0,0.5-0.8,1.2-2.4c0.6-1.6,1-2.9,1.2-3.9c3.3,0.9,5,1.5,5,2c0,0.4-0.3,0.7-0.9,0.7l-1.2,0.1c-1.3,1.7-2.7,2.9-4.4,3.5h5.1
					c1.3-1.6,2.1-2.4,2.4-2.4c0.3,0,1,0.5,2.2,1.4c1.1,0.9,1.7,1.5,1.7,1.8c0,0.5-0.5,0.7-1.5,0.9c-0.5,0.1-0.8,0.1-0.9,0.2
					c-1.1,1-2.1,1.8-3,2.4L141.8,134z M124.2,143.6l-0.8,0.8h11.6c1.6-1.4,2.5-2.1,2.8-2.1c0.3,0,1.1,0.5,2.4,1.5c1.3,1,2,1.6,2,1.9
					c0,0.4-0.7,0.7-2.1,1c-0.6,0.1-1,0.2-1.2,0.3c-1.7,1.6-3.7,3-6.1,4.4c4.4,1.3,8.9,2,13.4,2l0,0.8c-0.9,0.1-1.5,0.8-1.9,2.1
					c-0.2,0.7-0.6,1.1-1,1.1c-1.1,0-3.2-0.5-6.2-1.4c-3-0.9-5.4-1.9-7.1-2.8c-2.7,1.3-6.2,2.4-10.3,3.3c-4.2,0.9-6.9,1.4-8.1,1.4h0
					l-0.2-0.6c6.7-1.6,12-3.5,15.9-5.8c-2.5-1.4-4.5-2.9-6.2-4.7c-2.5,2.4-5.7,4.3-9.5,5.8l-0.3-0.6c5.1-3.6,8.5-7.3,10.2-11
					c3.4,1.1,5.1,1.8,5.1,2.1c0,0.5-0.7,0.7-2,0.7C124.4,143.6,124.3,143.6,124.2,143.6z M118.4,133.4l0.6,0.1
					c0.1,0.5,0.1,1.1,0.1,1.8c0,3.8-1.3,5.7-3.8,5.7c-1.1,0-1.7-0.5-1.7-1.6c0-0.6,0.3-1.1,0.8-1.4C116.6,136.5,118,135,118.4,133.4
					z M131.2,128c0,1.3-0.7,2-2,2c-0.9,0-1.3-0.7-1.4-2.1c-0.1-2.1-0.3-3.2-0.6-3.2c-1.5,0.1-3,0.1-4.6,0.2c-1.6,0-2.8,0.1-3.5,0.1
					c2.5,0.4,3.7,1.4,3.7,3.1c0,1.3-0.7,2-2,2c-0.7,0-1.2-0.8-1.6-2.3c-0.3-1.9-0.6-2.8-1-2.8c-1-0.1-1.8-0.1-2.4-0.1
					c-0.6,0-1.1,0-1.6-0.1L114,124c11.8-0.6,20.4-2,25.7-4c2.9,1.5,4.4,2.5,4.4,2.9c0,0.4-0.2,0.6-0.6,0.6c-0.2,0-0.8-0.1-1.6-0.3
					c-0.3-0.1-0.5-0.1-0.6-0.1c-0.1,0-0.4,0.1-1.1,0.2c-4.6,0.9-8.7,1.3-12.3,1.4c0.6,0,1.3,0.3,2.1,1
					C130.7,126.3,131.2,127.1,131.2,128z M121.1,137.2v-1.3c0-1.5-0.1-2.7-0.2-3.7c3.9,0.6,5.8,1.1,5.8,1.6c0,0.4-0.5,0.7-1.4,1
					c-0.5,0.1-0.7,0.2-0.7,0.3v1.6c0,1,0.6,1.5,1.8,1.6c1.2,0.1,2.3,0.1,3.2,0.1c3.2,0,5-0.3,5.5-0.9c0.4-0.6,0.8-1.8,1.1-3.6h0.7
					c0.1,2.1,0.5,3.3,1.2,3.6c0.6,0.3,0.9,0.7,0.9,1.2c0,1.8-3.3,2.6-9.9,2.6c-3.8,0-6.2-0.3-7-0.8
					C121.4,139.8,121,138.8,121.1,137.2z M129.4,150c2.5-1.6,4.5-3.2,6-4.6h-13l-0.8,0.7C123.3,147.3,125.9,148.6,129.4,150z
					 M127.6,132.2l0.2-0.4c3.4,0,5,1.1,5,3.2c0,1.4-0.6,2-1.8,2c-0.5,0-1.1-0.6-1.7-1.8C128.9,134,128.3,133,127.6,132.2z
					 M144.5,138.5c0,1.4-0.6,2.1-1.8,2.1c-0.7,0-1.3-0.6-1.8-1.9c-0.5-1.5-1.3-2.9-2.2-4.2l-0.1-0.1l0.3-0.4
					C142.7,134.6,144.5,136.2,144.5,138.5z"/>
				<path class="st0" d="M181.8,132.7c1.3-1.4,2-2.1,2.2-2.1c0.3,0,1,0.4,2.2,1.2c1.1,0.8,1.7,1.3,1.7,1.6c0,0.2-0.1,0.4-0.3,0.5
					c-1.1,0.9-1.6,1.4-1.6,1.5v2c0,0.4,0.1,2.4,0.2,6c0,0.5-0.6,0.8-1.9,1h0c-0.5,0.1-0.9,0.2-1.1,0.2c-0.7,0-1-0.3-1-0.8l0-1.4
					h-2.6v8.1c0,1,0.2,1.7,0.6,2c0.5,0.3,1.9,0.4,4.3,0.4c2.7,0,4.2-0.5,4.5-1.5c0.3-1,0.6-2.1,0.8-3.4c0.2-1.3,0.4-2.4,0.6-3.4
					l0.8,0.1c0,0.3,0,0.8,0,1.3c0,1.3,0,2.5,0.1,3.7c0.1,1.2,0.4,2.1,1.1,2.5c0.8,0.4,1.2,0.9,1.2,1.4c0,1.7-3,2.5-9.1,2.5
					c-4.2,0-6.7-0.3-7.5-0.8c-0.8-0.6-1.2-1.7-1.2-3.2v-9.6h-2.6c-0.4,4.8-2.1,8.4-5.2,10.8c-3.1,2.4-6.9,3.8-11.3,4.3l-0.3-0.6
					c3.4-0.9,6.3-2.6,8.7-4.9c2.4-2.3,3.8-5.5,4.1-9.4h-2.5l0,0.8v0c0,0.7-0.9,1.1-2.7,1.1c-0.9,0-1.3-0.3-1.3-0.8
					c0.1-2.5,0.2-4.4,0.2-5.5v-1.5c0-2.3-0.1-4.3-0.3-5.9c1.5,0.5,3,1.1,4.5,1.8h5.6v-5.2h-10.3c0,0-0.1,0-0.3,0
					c-0.7,0-1.5,0.1-2.4,0.1c-0.9,0-1.7,0.1-2.4,0.3l-0.7-1.9c1.7,0.4,4.4,0.6,8,0.6h8c0-2.9-0.1-5.1-0.4-6.5
					c3.9,0.7,5.8,1.2,5.8,1.6c0,0.2-0.1,0.4-0.4,0.5c-0.9,0.4-1.3,0.6-1.3,0.7v3.7h9.1c1.8-2,2.8-3,3.1-3c0.2,0,1,0.5,2.2,1.6
					c1.2,1.1,1.8,1.7,1.8,2c0,0.3-0.1,0.4-0.4,0.4h-15.9v5.2L181.8,132.7z M182.2,141.6v-7.9h-15.4v7.9H182.2z"/>
				<path class="st0" d="M233.3,124c1.1-1.4,1.9-2,2.2-2c0.3,0,1,0.5,2.1,1.4c1.1,1,1.6,1.6,1.6,2c0,0.4-0.3,0.6-0.8,0.6
					c-0.1,0-0.3,0-0.6,0c-0.2,0-0.4,0-0.5,0c-0.2,0-0.4,0-0.5,0.1c-1,0.7-1.9,1.2-2.8,1.6c0.8,0.7,1.2,1.2,1.2,1.4
					c0,0.3-0.1,0.5-0.4,0.5h-7.2v2.4h2.1c1.1-1.3,1.7-2,2-2c0.3,0,0.8,0.4,1.6,1.1c0.8,0.7,1.2,1.2,1.2,1.4c0,0.3-0.1,0.4-0.4,0.4
					h-6.5v2.8h5.9c1.4-1.7,2.2-2.6,2.4-2.6c0.3,0,1,0.4,1.9,1.3c1,0.9,1.4,1.5,1.4,1.7c0,0.3-0.1,0.5-0.4,0.5h-11.5
					c0.9,1.1,2.6,2,5,2.9c2.4,0.9,4.8,1.4,7.4,1.6l-0.1,0.7c-0.7,0.4-1.2,1-1.4,1.8c-0.1,0.6-0.3,1-0.6,1c-1.8,0-3.9-0.9-6.2-2.7
					v3.6c0,0.5,0,2.2,0.1,5.2c0,0.8-0.9,1.2-2.8,1.2c-0.7,0-1-0.2-1-0.6V151h-14v0.4c0,0.7-0.9,1-2.8,1c-0.6,0-1-0.2-1-0.7
					c0.1-2.7,0.2-4.4,0.2-5.2V142c-2.4,1.4-5,2.5-7.8,3.2l-0.2-0.6c4.8-2.3,8.3-5,10.5-8h-3.2c-0.7,0-1.3,0-2,0c-0.4,0-0.8,0-1.1,0
					c-1.3,0-2.3,0.1-2.8,0.3l-0.8-1.9c1.3,0.3,3.5,0.5,6.5,0.5c0.2,0,0.3,0,0.3,0h4.6v-2.8c-2.4,0-4,0.1-4.8,0.4l-0.7-1.8
					c1,0.3,2.7,0.4,5.1,0.4c0.2,0,0.3,0,0.4,0v-2.4h-0.2c-3.1,0-4.9,0.1-5.6,0.4l-0.7-1.8c1.3,0.3,3.2,0.5,5.7,0.5h0.8
					c0-0.1,0-0.2,0-0.4c0-1.1-0.1-2.1-0.2-2.8c3.6,0.4,5.4,0.8,5.4,1.2c0,0.2-0.1,0.4-0.4,0.5c-0.8,0.3-1.2,0.5-1.2,0.6v0.8h6.5
					c0-0.1,0-0.2,0-0.4c0-1.1-0.1-2.1-0.2-2.8c3.5,0.4,5.3,0.8,5.3,1.2c0,0.2-0.1,0.4-0.4,0.5c-0.8,0.3-1.2,0.5-1.2,0.6v0.8h2.4
					c1.1-1.5,1.7-2.3,1.9-2.3c0.3,0,0.7,0.2,1.2,0.7l0.6-2h-25.9c0,0.2,0,0.4,0,0.6c0,2.7-1.1,4.1-3.2,4.1c-1.3,0-2-0.5-2-1.5
					c0-0.6,0.4-1.1,1.2-1.7c1.5-1,2.3-2.5,2.5-4.4l0.6,0c0.3,1,0.5,1.6,0.6,1.9H220c-0.2-0.2-0.5-0.5-0.8-1c-0.8-1.2-1.8-2-3-2.4
					l0.2-0.5c0.7-0.1,1.4-0.2,2.2-0.2c3.1,0,4.7,0.9,4.7,2.6c0,0.7-0.2,1.2-0.6,1.5L233.3,124z M215.5,151.5c3,1.3,4.6,2.2,4.6,2.5
					c0,0.4-0.2,0.6-0.7,0.6c-0.3,0-0.7,0-1.1-0.1c-0.3,0-0.5,0-0.6,0c-0.1,0-0.2,0-0.2,0c-3.1,1.7-7.6,2.7-13.5,3.2l-0.2-0.6
					C209.1,155.8,213,154,215.5,151.5z M227.6,140.4h-14v2.4h14V140.4z M227.6,143.7h-14v2.6h14V143.7z M227.6,150.2v-2.9h-14v2.9
					H227.6z M226.1,136.7h-9.3c-0.6,0.7-1.4,1.6-2.5,2.7h13.8C227.5,138.8,226.8,137.9,226.1,136.7z M217.4,132h6.5v-2.4h-6.5V132z
					 M217.4,135.6h6.5v-2.7h-6.5V135.6z M222.7,152.8l0.2-0.6c0,0,0.1,0,0.1,0c8.3,0,12.5,1.2,12.5,3.6c0,1.2-0.5,1.8-1.4,1.8
					c-0.5,0-1.2-0.4-2.3-1.1C229.4,154.8,226.4,153.6,222.7,152.8z"/>
				<path class="st0" d="M264.6,149.1h-7.1c-3,0-4.9,0.1-5.8,0.4l-0.7-1.8c1.5,0.3,3.9,0.4,7.1,0.4h6.5v-4.2h-10.4
					c-3,0-4.9,0.1-5.8,0.4l-0.6-1.8c1.3,0.3,3.7,0.4,7,0.4h9.8v-3.7h-6.4c0,0-0.2,0-0.6,0c-1.1,0-2,0.1-2.7,0.1
					c-0.9,0-1.8,0.1-2.5,0.2l-0.7-1.8c1.3,0.4,3.7,0.6,7,0.6h5.8v-3.7h-7.6v0.9c0,0.7-0.9,1.1-2.8,1.1c-0.7,0-1-0.3-1-0.8
					c0,0,0-0.1,0-0.1c0.1-1.3,0.1-2.3,0.1-3v-2.2c0-1.3-0.1-2.4-0.2-3.4c1.1,0.2,2.6,0.6,4.4,1.2h7.1v-3h-10.2c-3,0-4.9,0.1-5.8,0.4
					l-0.7-1.9c1.5,0.3,3.9,0.5,7.1,0.5h9.6c0-0.1,0-0.1,0-0.3c0-1.3-0.1-2.6-0.3-3.9c4,0.6,6,1.1,6,1.5c0,0.2-0.1,0.4-0.4,0.5
					c-1.1,0.4-1.6,0.7-1.6,0.8v1.4h9.3c1.7-1.9,2.7-2.9,2.9-2.9c0.3,0,1,0.5,2.2,1.6c1.2,1,1.8,1.7,1.8,1.9c0,0.3-0.1,0.4-0.3,0.4
					h-15.8v3h7.2c1-1.2,1.7-1.8,2-1.8c0.3,0,1,0.4,2,1.1c1,0.7,1.6,1.2,1.6,1.5c0,0.2-0.3,0.5-0.8,0.8c-0.5,0.3-0.7,0.5-0.7,0.6v1.5
					c0,0.3,0,0.6,0,0.8c0.1,0.8,0.1,1.5,0.1,2.1c0,0.5-0.7,0.8-2,1h0c-0.3,0.1-0.6,0.1-0.8,0.1c-0.7,0-1-0.2-1-0.6v-0.8h-7.6v3.7
					h8.2c1.1-1.3,1.9-2,2.2-2c0.2,0,0.9,0.4,1.9,1.1c1,0.7,1.6,1.2,1.6,1.5c0,0.2-0.3,0.6-1,1c-0.4,0.2-0.6,0.3-0.6,0.5v2.6h0.4
					c0.9-1.8,1.5-2.7,1.7-2.7c0.3,0,0.8,0.5,1.5,1.5c0.7,1,1.1,1.5,1.1,1.8c0,0.3-0.1,0.4-0.4,0.4h-4.4v1.5c0,0.6,0.1,2.3,0.2,4.9
					c0,0.8-1,1.2-3,1.2c-0.6,0-0.9-0.3-0.9-0.8l0-1.6h-8.7v4.4c0,1.5-0.6,2.5-1.7,3.1c-1.1,0.6-2.1,1-3,1c-0.4,0-0.6-0.2-0.7-0.5
					c-0.2-1.2-0.8-2-1.8-2.5c-1-0.5-2.2-0.9-3.6-1.2l0.1-0.7c1.6,0.2,3.7,0.2,6.3,0.2c0.5,0,0.8-0.3,0.8-0.8V149.1z M264.6,133.6
					v-4.3h-7.6v4.3H264.6z M268.4,129.2v4.3h7.6v-4.3H268.4z M268.4,139.1v3.7h8.7v-3.7H268.4z M277.1,143.8h-8.7v4.2h8.7V143.8z"/>
			</g>
		</g>
	</g>
	<g>
		<path class="st0" d="M69.4,122.4c-14.2,0-25.7,11.5-25.7,25.7c0,9.3,5,17.4,12.4,21.9l0,0h0l6.6-7.3l0,0v0l4.7,5.2l7.7-8.5
			c-0.7-2.8-1.4-5.8-1.4-5.8l-7.2-3.2l-3.4,5.9c0,0-0.4,1.2-2.4,1.8l-9.1,3.3c-1,0.4-2.2,0-2.8-0.9c-0.7-1.1-0.3-1.7,1.2-2.3
			c0.2-0.1,8.6-3.2,8.6-3.2l6.5-17.3l-2.9,0.5l-3.1,8.1c-0.2,0.5-0.6,0.9-1.1,1.1c-1,0.4-2-0.1-2.4-1.1c-0.2-0.5-0.1-1.1,0.1-1.5
			l3.3-8.7c0.2-0.5,0.6-0.9,1.1-1.1l8.3-3.1c0,0,6.8,1.9,7.4,2.1l1.8,4.9l6.2-2.3c0.4-0.1,0.9,0,1.3,0.2c1,0.4,1.4,1.6,0.9,2.5
			c-0.2,0.4-0.5,0.7-0.9,0.9l-7.5,2.8c-2.3,0.8-2.9-1.1-2.9-1.1l-1.3-2.3l-2.3,5.9l5.4,4.4c0,0,1.3,0.9,1.4,2.6l0.5,3l6.6-7.2
			l8.2,8.9c1.1-2.9,1.8-6,1.8-9.3C95.1,133.9,83.6,122.4,69.4,122.4z M75.1,132.4c-1.9,0.7-4-0.3-4.7-2.2c-0.7-1.9,0.3-4,2.2-4.7
			c1.9-0.7,4,0.3,4.7,2.2C78,129.6,77,131.7,75.1,132.4z"/>
		<path class="st0" d="M69.4,116.5c-17.4,0-31.5,14.1-31.5,31.5s14.1,31.5,31.5,31.5s31.5-14.1,31.5-31.5S86.8,116.5,69.4,116.5z
			 M69.4,176.6c-15.7,0-28.5-12.8-28.5-28.5s12.8-28.5,28.5-28.5s28.5,12.8,28.5,28.5S85.1,176.6,69.4,176.6z"/>
	</g>
</g>
</svg>
