<?xml version="1.0" encoding="utf-8"?>
<!-- Generator: Adobe Illustrator 25.1.0, SVG Export Plug-In . SVG Version: 6.00 Build 0)  -->
<svg version="1.1" id="圖層_3" xmlns="http://www.w3.org/2000/svg" xmlns:xlink="http://www.w3.org/1999/xlink" x="0px" y="0px"
	 viewBox="0 0 323.3 296.1" style="enable-background:new 0 0 323.3 296.1;" xml:space="preserve">
<style type="text/css">
	.st0{fill:#E95513;}
	.st1{fill:#F29600;}
	.st2{fill:#FFFFFF;}
	.st3{fill:#B50033;}
</style>
<g>
	<g>
		<g>
			<g>
				<path class="st0" d="M161.5,142.6h3.8c1.3,0,1.9,0.6,1.6,1.7l-3.4,14.7c-0.3,1.1-1,1.7-2.1,1.8c0.2,0.1,0.3,0.2,0.4,0.4
					c0.3,1.4,0.4,2.9,0.4,4.7c0,0.3-0.1,0.6-0.1,0.9c-0.1,0.6-0.6,0.9-1.5,0.9c-0.4,0-0.6-0.3-0.8-0.8c0-2-0.1-3.5-0.3-4.7
					c0-0.3,0-0.5,0-0.7c0.1-0.3,0.3-0.5,0.6-0.7h-2.2c0.1,0,0.2,0.1,0.3,0.2c0.2,0.2,0.3,0.4,0.2,0.7c0,0.2-0.1,0.4-0.3,0.6
					c-1.2,2.1-2.4,4-3.7,5.5c-0.4,0.3-0.8,0.5-1.2,0.5c-0.8,0-1.1-0.3-0.9-0.9c0.1-0.3,0.1-0.5,0.2-0.6c1.1-1.5,2.3-3.3,3.6-5.6
					c0.1-0.2,0.3-0.4,0.5-0.5c-1-0.1-1.4-0.7-1.1-1.8l3.4-14.7C159.5,143.2,160.2,142.6,161.5,142.6z M160.5,158.9
					c0.6,0,0.9-0.3,1.1-0.9l0.6-2.8h-3.3l-0.6,2.8c-0.1,0.6,0,0.9,0.5,0.9H160.5z M159.4,153.1h3.3l0.8-3.4h-3.3L159.4,153.1z
					 M160.6,147.8h3.3l0.6-2.5c0.1-0.5-0.1-0.8-0.7-0.8h-1.7c-0.5,0-0.8,0.3-0.9,0.8L160.6,147.8z M185,143.6c0.6,0,0.9,0.3,0.8,0.9
					c-0.2,0.7-0.6,1-1.2,1h-3.7l-0.3,1.2h3.2c0.6,0,0.9,0.3,0.7,0.9c-0.1,0.6-0.5,0.9-1.1,0.9h-3.2l-0.4,1.7h4.2
					c0.6,0,0.8,0.3,0.7,0.9c-0.2,0.7-0.5,1-1.1,1H176l-0.4,1.7h4.6c1.5,0,2.1,0.7,1.8,2l-1.3,5.8h0.8c0.7,0,1,0.3,0.8,1
					c-0.2,0.7-0.6,1-1.3,1h-0.8l-0.3,1.5c-0.5,2-1.8,3-4.1,3c-0.9,0-1.9-0.2-3-0.5c-0.5-0.2-0.7-0.5-0.6-1c0.2-0.8,0.6-1.2,1.2-1.2
					c0.2,0,0.4,0,0.6,0.1c0.9,0.2,1.6,0.3,2,0.3c0.9,0,1.5-0.5,1.7-1.4l0.2-0.8h-11.3l-0.8,3.5c-0.2,0.7-0.6,1-1.4,1
					c-0.7,0-1-0.3-0.8-1l0.8-3.5h-0.9c-0.7,0-1-0.3-0.8-1c0.2-0.7,0.6-1,1.3-1h0.9l1.3-5.8c0.3-1.4,1.2-2,2.7-2h4.4l0.4-1.7h-7.2
					c-0.6,0-0.9-0.3-0.7-1c0.1-0.6,0.5-0.9,1.2-0.9h3.6l0.4-1.7h-2.8c-0.6,0-0.9-0.3-0.7-0.9c0.1-0.6,0.5-0.9,1.1-0.9h2.8l0.3-1.2
					h-3.5c-0.6,0-0.9-0.3-0.7-1c0.1-0.6,0.5-0.9,1.1-0.9h3.5l0.2-0.9c0.2-0.7,0.6-1,1.3-1c0.8,0,1.1,0.3,0.9,1l-0.2,0.9h4.6l0.2-0.8
					c0.2-0.8,0.6-1.1,1.4-1.1c0.8,0,1.1,0.4,0.9,1.1l-0.2,0.8H185z M167.1,161.8h4.4l0.5-2.2h-4.4L167.1,161.8z M168.1,157.8h4.4
					l0.4-1.9h-3.7c-0.5,0-0.8,0.3-0.9,0.9L168.1,157.8z M177.4,150.3l0.4-1.7h-4.6l-0.4,1.7H177.4z M178.3,146.8l0.3-1.2h-4.6
					l-0.3,1.2H178.3z M174.3,159.7l-0.5,2.2h4.6l0.5-2.2H174.3z M175.1,155.9l-0.4,1.9h4.6l0.2-1c0.1-0.6-0.1-0.9-0.6-0.9H175.1z"/>
				<path class="st0" d="M196.5,143.1c0.9,0,1.2,0.4,1,1.2c-0.3,1.1-0.6,2.2-0.9,3.2h2l1.1-4.8c0.2-0.8,0.6-1.1,1.4-1.1
					c0.8,0,1.1,0.4,0.9,1.1l-1.1,4.8h1.6c0.7,0,1,0.3,0.8,1c-0.2,0.8-0.6,1.1-1.3,1.1h-1.6l-1.5,6.3c0.5-0.3,1-0.6,1.6-0.9l0.5-0.1
					c0.8,0,1,0.4,0.8,1.3c-0.1,0.3-0.3,0.6-0.7,0.9c-0.8,0.5-1.7,1.1-2.9,1.6l-1.9,8.4c-0.2,0.8-0.7,1.1-1.5,1.1
					c-0.8,0-1.1-0.4-0.9-1.1l1.7-7.2c-1.3,0.6-2.5,1-3.6,1.3c-0.3,0.1-0.5,0.1-0.7,0.1c-0.8,0-1.1-0.4-0.9-1.2
					c0.1-0.6,0.6-1,1.2-1.2c1.6-0.5,3-1,4.1-1.4c0.1-0.1,0.3-0.1,0.4-0.2l1.8-7.6h-2.3c-0.6,1.5-1.3,3-2.1,4.4
					c-0.3,0.8-0.9,1.1-1.7,1.1c-0.6,0-0.8-0.3-0.7-0.9c0.1-0.3,0.2-0.6,0.3-0.9c1.5-2.5,2.7-5.6,3.7-9.3
					C195.5,143.5,195.9,143.1,196.5,143.1z M208.3,141.7c0.8,0,1.1,0.3,0.9,1c-0.3,1-0.6,2-1,2.8h10.2c1.6,0,2.3,0.7,2,2.1
					c-1.4,6.1-2.8,11-4.1,14.5c-0.8,2.3-1.8,3.9-2.8,4.7c-1,0.9-2.4,1.3-4,1.3c-0.8,0-1.8-0.2-3.1-0.7c-0.6-0.2-0.8-0.6-0.6-1.2
					c0.2-0.9,0.7-1.4,1.6-1.4c1.3,0.5,2.3,0.8,2.7,0.8c1,0,1.8-0.3,2.4-0.9c0.6-0.8,1.2-1.9,1.7-3.5c0.9-2.3,2.1-6.5,3.5-12.6
					c0.1-0.6-0.1-0.9-0.7-0.9h-0.6c-0.1,0.4-0.2,0.7-0.4,1.1c-0.8,2.5-2.1,5-3.6,7.6c-1.2,2-2.6,3.9-4.3,5.7c-1.7,1.8-3.7,3.5-6,5.2
					c-0.3,0.1-0.5,0.1-0.7,0.1c-0.3,0-0.6-0.1-0.8-0.4c-0.2-0.2-0.2-0.5-0.1-0.9c0.1-0.4,0.3-0.7,0.5-0.9c2.4-1.7,4.3-3.3,5.7-4.7
					c1.6-1.6,2.9-3.4,4-5.3c1.4-2.1,2.5-4.6,3.6-7.6h-2.3c0,0.1-0.1,0.2-0.2,0.3c-1,2.3-2.1,4.3-3.2,5.9c-1.1,1.7-2.3,3.3-3.7,4.8
					c-1.1,1.3-2.4,2.4-3.7,3.4c-0.2,0.1-0.5,0.1-0.8,0.1c-0.3,0-0.6-0.1-0.7-0.4c-0.2-0.2-0.2-0.5-0.2-0.9c0.1-0.3,0.3-0.6,0.6-0.8
					c1.2-0.9,2.4-2,3.4-3.1c1.2-1.4,2.4-2.9,3.4-4.4c0.9-1.4,1.8-3,2.7-4.9h-2.3c-0.1,0.2-0.2,0.4-0.3,0.6c-0.9,1.7-2.1,3.4-3.7,4.8
					c-0.5,0.4-0.9,0.6-1.3,0.6c-0.8,0-1.1-0.4-0.9-1.1c0-0.1,0.1-0.3,0.3-0.6c1.5-1.4,2.6-2.8,3.5-4.3c0.8-1.4,1.5-3,2.1-5
					C207.1,142,207.5,141.7,208.3,141.7z"/>
				<path class="st0" d="M233.4,146.7h8.4l0.9-3.9c0.2-0.8,0.7-1.1,1.4-1.1c0.9,0,1.2,0.4,1,1.1l-0.9,3.9h8.4c2,0,2.8,0.9,2.4,2.8
					l-1.9,8.3c-0.4,1.9-1.7,2.9-3.7,2.9H241l-1.6,7.1c-0.2,0.8-0.7,1.1-1.5,1.1c-0.8,0-1.1-0.4-0.9-1.1l1.6-7.1h-8.4
					c-1.9,0-2.7-1-2.2-2.9l1.9-8.3C230.3,147.6,231.5,146.7,233.4,146.7z M239.1,158.4l2.2-9.4h-7.8c-0.7,0-1.1,0.4-1.3,1.1
					l-1.7,7.2c-0.2,0.8,0.1,1.1,0.8,1.1H239.1z M249.3,158.4c0.8,0,1.2-0.4,1.4-1.1l1.7-7.2c0.2-0.8-0.1-1.1-0.9-1.1h-7.8l-2.2,9.4
					H249.3z"/>
				<path class="st0" d="M267.1,151.4c0.9,0,1.2,0.4,1,1.1c-1.1,3.2-2,5.6-2.7,7.1c-0.6,1.4-1.3,2.9-2.1,4.5
					c-0.4,0.5-0.8,0.8-1.4,0.8c-0.9,0-1.2-0.3-1.1-0.9l0.1-0.5c0.8-1.6,1.6-3,2.1-4.4c0.7-1.5,1.5-3.7,2.6-6.8
					C266,151.7,266.4,151.4,267.1,151.4z M272.6,147.8c0.9,0,1.2,0.4,1,1.1l-3.5,15.1c-0.1,0.5,0.1,0.9,0.7,1.1
					c0.7,0.2,2.3,0.4,4.9,0.4c2.5,0,4.1-0.2,4.6-0.5c0.7-0.4,1.1-0.9,1.2-1.6l0.8-3.6c0.2-0.9,0.7-1.3,1.4-1.4
					c0.8,0.1,1.1,0.6,0.9,1.6c-0.7,3.1-1.3,5-1.8,5.5c-0.4,0.6-1.1,1.1-2.2,1.5c-0.9,0.3-2.8,0.5-5.5,0.5c-3.5,0-5.7-0.2-6.7-0.7
					c-0.9-0.4-1.3-1.2-1-2.4l3.6-15.6C271.4,148.2,271.9,147.8,272.6,147.8z M277.3,143.7c0.5,0,0.9,0.2,1,0.7
					c0.9,1.8,1.5,4.8,2,8.8c0.1,0.8,0.1,1.4,0,1.8c-0.2,0.7-0.6,1-1.4,1c-0.7,0-1-0.3-0.9-1c-0.2-3.7-0.7-6.9-1.7-9.5l-0.2-0.9
					C276.2,144,276.6,143.7,277.3,143.7z M285.9,150.3c0.5,0,0.8,0.2,1,0.7c0.9,1.5,1.6,4,2.2,7.4c0.1,0.7,0.2,1.2,0.1,1.4
					c-0.2,0.7-0.6,1-1.4,1c-0.7,0-1-0.3-0.9-1c-0.3-3.1-0.9-5.8-2-8l-0.2-0.7C284.8,150.6,285.2,150.3,285.9,150.3z"/>
			</g>
		</g>
		<g>
			<path class="st1" d="M167,122.9c-1.9,0-3.7,1.5-4.1,3.4l-2.6,11.3h67.5c1.9,0,3.7-1.5,4.1-3.4l2.6-11.3H167z"/>
			<g>
				<path class="st2" d="M183.1,126c1.2,0,2.1,0.3,2.7,1c0.6,0.7,0.8,1.5,0.8,2.4c0,0.4-0.1,0.8-0.2,1.3c-0.1,0.5-0.3,1-0.6,1.5
					c-0.3,0.5-0.7,0.9-1.2,1.3c-0.5,0.4-1,0.6-1.4,0.7c-0.5,0.1-0.9,0.2-1.4,0.2c-1.2,0-2.1-0.3-2.7-0.9s-0.9-1.4-0.9-2.5
					c0-0.6,0.1-1.1,0.3-1.6c0.2-0.5,0.4-1,0.7-1.5c0.3-0.5,0.7-0.9,1.2-1.2c0.5-0.3,0.9-0.5,1.4-0.6C182.1,126,182.6,126,183.1,126z
					 M181.9,132.5c0.5,0,0.9-0.2,1.2-0.5c0.3-0.4,0.6-0.8,0.8-1.4c0.2-0.6,0.2-0.9,0.3-1.2c0-0.5-0.1-0.9-0.4-1.2
					c-0.3-0.3-0.6-0.4-1-0.4c-0.5,0-0.9,0.2-1.2,0.5c-0.3,0.3-0.6,0.8-0.8,1.3c-0.2,0.6-0.3,1-0.3,1.4c0,0.4,0.1,0.8,0.3,1
					C181.1,132.4,181.5,132.5,181.9,132.5z"/>
				<path class="st2" d="M190.1,129.3c0.6-0.7,1.4-1,2.3-1c0.5,0,0.9,0.1,1.2,0.4c0.3,0.3,0.4,0.6,0.4,1c0,0.2-0.1,0.7-0.2,1.4
					l-0.7,3.2h-2.3l0.6-2.7c0.2-0.7,0.2-1,0.2-1.1c0-0.3-0.1-0.5-0.4-0.5c-0.3,0-0.6,0.2-0.9,0.5c-0.3,0.3-0.4,0.8-0.6,1.3l-0.6,2.5
					h-2.3l1.4-5.9h2.1L190.1,129.3L190.1,129.3z"/>
				<path class="st2" d="M198.5,126.1l-1.9,8.1h-2.3l1.9-8.1H198.5z"/>
				<path class="st2" d="M201.8,128.4l-1.4,5.9h-2.3l1.4-5.9H201.8z M202.3,126.1l-0.3,1.5h-2.2l0.3-1.5H202.3z"/>
				<path class="st2" d="M205.2,129.3c0.6-0.7,1.4-1,2.3-1c0.5,0,0.9,0.1,1.2,0.4c0.3,0.3,0.4,0.6,0.4,1c0,0.2-0.1,0.7-0.2,1.4
					l-0.7,3.2h-2.3l0.6-2.7c0.2-0.7,0.2-1,0.2-1.1c0-0.3-0.1-0.5-0.4-0.5c-0.3,0-0.6,0.2-0.9,0.5c-0.3,0.3-0.4,0.8-0.6,1.3l-0.6,2.5
					h-2.3l1.4-5.9h2.1L205.2,129.3L205.2,129.3z"/>
				<path class="st2" d="M216.3,132.7c-0.3,0.6-0.8,1-1.3,1.3c-0.5,0.3-1.2,0.4-2,0.4c-1.2,0-2-0.3-2.5-0.8
					c-0.5-0.5-0.7-1.2-0.7-1.9c0-0.5,0.1-1,0.4-1.5c0.2-0.5,0.6-0.8,0.9-1.2c0.4-0.3,0.8-0.5,1.2-0.6c0.4-0.1,0.8-0.2,1.3-0.2
					c1.1,0,1.9,0.2,2.3,0.7c0.5,0.5,0.7,1.1,0.7,1.8c0,0.2-0.1,0.6-0.2,1.2H212c0,0.8,0.4,1.2,1,1.2c0.4,0,0.8-0.2,1-0.5
					L216.3,132.7z M214.4,130.8c0-0.1,0-0.2,0-0.3c0-0.3-0.1-0.5-0.3-0.7c-0.2-0.2-0.4-0.2-0.7-0.2c-0.3,0-0.5,0.1-0.8,0.3
					c-0.2,0.2-0.4,0.5-0.5,0.9H214.4z"/>
			</g>
		</g>
	</g>
	<path class="st3" d="M53.1,161.3c-1.7,1.6-3.6,2.4-5.6,2.4c-1.5,0-2.7-0.4-3.6-1.3c-0.9-0.8-1.4-2.1-1.4-3.8c0-0.2,0-0.4,0-0.7
		l-8.5,0.6c0,3.4,1.3,6,3.7,8c2.4,2,5.5,3,9.3,3c3,0,5.8-0.7,8.5-2c2.7-1.3,4.8-3.2,6.4-5.6c0.4-0.6,0.7-1.2,1-1.9h-8.9
		C53.8,160.5,53.5,160.9,53.1,161.3z"/>
	<path class="st0" d="M64.3,154.5c0-3.1-1.1-5.7-3.3-7.5c-2.2-1.9-5-2.8-8.4-2.8c-0.8,0-1.7,0.1-2.5,0.2c-0.8,0.2-1.7,0.4-2.5,0.7
		l2-5.6h14.8L66,133H43.7l-6.8,18.6l7.2,0.4c1-0.9,2-1.5,3.1-2c1.1-0.4,2.2-0.6,3.3-0.6c1.6,0,2.8,0.4,3.8,1.3
		c1,0.9,1.4,2.1,1.4,3.8c0,0.6,0,1.2-0.1,1.8h8.6C64.2,155.8,64.3,155.2,64.3,154.5z"/>
	<polygon class="st3" points="82.5,168.9 89.2,168.9 91.5,160.1 84.8,160.1 	"/>
	<path class="st3" d="M66.7,168.9h6.7l2.1-8c0.1-0.3,0.1-0.5,0.2-0.8H69L66.7,168.9z"/>
	<path class="st0" d="M77,156.2c0.7-1.2,1.7-2.2,3.1-3.1c1-0.6,2.1-1,3.2-1c0.9,0,1.6,0.2,2.1,0.6c0.5,0.4,0.8,0.9,0.8,1.6
		c0,0.3-0.1,1-0.4,2h6.7c0.3-1.3,0.5-2.4,0.5-3.1c0-1.5-0.6-2.8-1.7-3.7c-1.2-0.9-2.7-1.4-4.8-1.4c-1.5,0-2.9,0.2-4.2,0.6
		c-1.3,0.4-2.7,1.1-4.2,2.1l2.6-10h-6.7l-3.9,15.4h6.9C76.9,156.3,76.9,156.2,77,156.2z"/>
	<g>
		<polygon class="st3" points="99.4,156.4 98.7,159.2 146.2,159.2 146.9,156.4 		"/>
		<polygon class="st3" points="98.1,161.3 97.4,164.1 145,164.1 145.7,161.3 		"/>
		<polygon class="st3" points="96.9,166.1 96.2,168.9 143.7,168.9 144.4,166.1 		"/>
	</g>
	<g>
		<g>
			<g>
				<path class="st0" d="M114,152.6h-4.6l-0.9-16.3l-3.8,16.3h-4.4l5-19.5h7l0.7,13.6l8.1-13.6h7.1l-5,19.5h-4.5l4.7-16.2L114,152.6
					z"/>
			</g>
		</g>
		<g>
			<path class="st0" d="M141.5,152.6h-12.9l0.8-3.4h4.2l3-12.3l-4.6,0.9l0.9-3.5l9.2-1.7l-4,16.6h4.2L141.5,152.6z"/>
		</g>
	</g>
</g>
</svg>
